SplineFontDB: 3.0
FontName: CloisterStM-Light
FullName: Sorts Mill Cloister Light
FamilyName: Sorts Mill Cloister
Weight: Light
Copyright: Copyright (c) 2011 Barry Schwartz
UComments: "2011-3-2: Created." 
Version: 0.1
ItalicAngle: 0
UnderlinePosition: -100
UnderlineWidth: 50
Ascent: 800
Descent: 200
LayerCount: 2
Layer: 0 0 "Back"  1
Layer: 1 0 "Fore"  0
NeedsXUIDChange: 1
XUID: [1021 699 1687888208 4866544]
OS2Version: 0
OS2_WeightWidthSlopeOnly: 0
OS2_UseTypoMetrics: 1
CreationTime: 1299101727
ModificationTime: 1299291901
OS2TypoAscent: 0
OS2TypoAOffset: 1
OS2TypoDescent: 0
OS2TypoDOffset: 1
OS2TypoLinegap: 0
OS2WinAscent: 0
OS2WinAOffset: 1
OS2WinDescent: 0
OS2WinDOffset: 1
HheadAscent: 0
HheadAOffset: 1
HheadDescent: 0
HheadDOffset: 1
OS2Vendor: 'PfEd'
Lookup: 260 0 0 "blended_anchors"  {"blended_anchors-1"  } []
MarkAttachClasses: 1
DEI: 91125
LangName: 1033 "" "Sorts Mill Cloister Light" "Regular" "" "" "" "" "" "" "" "" "" "" "" "" "" "Sorts Mill Cloister" "Light" 
Encoding: UnicodeBmp
UnicodeInterp: none
NameList: Adobe Glyph List
DisplaySize: -48
AntiAlias: 1
FitToEm: 1
WinInfo: 60 12 5
BeginPrivate: 0
EndPrivate
AnchorClass2: "r;x"  "blended_anchors-1" "l;bl"  "blended_anchors-1" "l;hi"  "blended_anchors-1" "l;o"  "blended_anchors-1" "r;o"  "blended_anchors-1" "r;bl"  "blended_anchors-1" "l;x"  "blended_anchors-1" "r;hi"  "blended_anchors-1" 
BeginChars: 65545 118

StartChar: A
Encoding: 65 65 0
Width: 720
VWidth: 0
Flags: W
LayerCount: 2
Fore
SplineSet
144 70 m 0
 144 39 181 38 205 33 c 1
 205 29 206 26 206 22 c 0
 206 15 205 8 202 -2 c 1
 202 -2 154 3 119 3 c 0
 64 3 30 -3 30 -3 c 1
 26 9 26 15 26 28 c 1
 55 42 72 50 85 75 c 0
 130 164 177 257 222 358 c 0
 251 423 284 486 311 553 c 2
 342 630 l 2
 344 636 347 638 358 638 c 2
 361 638 l 2
 365 638 370 637 371 634 c 2
 414 531 l 1
 471 398 541 249 598 126 c 0
 612 97 629 55 656 41 c 0
 665 36 675 34 682 31 c 1
 683 26 683 20 683 15 c 0
 683 8 682 2 681 -5 c 1
 668 -5 640 0 583 0 c 0
 564 0 484 -5 484 -5 c 1
 481 4 479 11 479 20 c 0
 479 24 480 28 480 33 c 1
 511 37 l 2
 532 40 539 44 539 52 c 0
 539 58 535 67 530 79 c 2
 471 213 l 1
 206 213 l 1
 157 112 l 2
 147 92 144 81 144 70 c 0
452 257 m 1
 341 507 l 1
 226 257 l 1
 452 257 l 1
EndSplineSet
EndChar

StartChar: B
Encoding: 66 66 1
Width: 606
VWidth: 0
Flags: W
LayerCount: 2
Fore
SplineSet
205 70 m 0
 205 36 250 35 306 35 c 2
 316 35 l 2
 414 35 458 102 458 181 c 0
 458 233 432 276 384 307 c 0
 356 325 315 329 271 329 c 2
 210 329 l 1
 209 299 205 97 205 70 c 0
214 557 m 0
 212 498 211 500 210 371 c 1
 286 371 l 2
 366 371 426 392 426 471 c 0
 426 500 409 547 357 572 c 0
 336 582 308 587 280 587 c 2
 277 587 l 2
 249 587 215 587 214 557 c 0
170 3 m 0
 128 3 62 -6 62 -6 c 1
 59 1 56 10 56 20 c 0
 56 25 57 32 58 37 c 1
 105 40 112 48 113 66 c 0
 126 244 128 346 128 503 c 0
 128 586 117 584 77 590 c 1
 75 597 74 603 74 609 c 0
 74 615 75 620 80 625 c 1
 92 624 123 622 161 622 c 0
 183 622 240 626 295 626 c 0
 378 626 447 603 488 555 c 0
 503 538 511 514 511 489 c 0
 511 405 444 375 404 353 c 1
 455 333 551 296 551 198 c 0
 551 116 515 57 456 26 c 0
 419 7 374 -7 321 -7 c 0
 267 -7 224 3 170 3 c 0
EndSplineSet
EndChar

StartChar: C
Encoding: 67 67 2
Width: 660
VWidth: 0
Flags: W
LayerCount: 2
Fore
SplineSet
54 318 m 0
 54 495 225 628 394 628 c 0
 447 628 485 618 507 609 c 0
 530 600 542 599 559 599 c 2
 585 599 l 2
 596 599 600 599 600 583 c 0
 600 543 590 454 590 448 c 1
 586 445 580 444 573 444 c 0
 567 444 562 445 556 446 c 1
 555 452 554 462 553 468 c 0
 537 548 474 584 397 584 c 0
 347 584 299 565 261 540 c 0
 187 491 156 421 156 313 c 0
 156 201 192 111 262 65 c 0
 297 42 328 24 384 24 c 0
 481 24 542 69 567 150 c 1
 574 149 581 149 587 146 c 0
 593 143 594 139 594 132 c 0
 594 127 593 120 592 114 c 0
 585 79 570 14 556 -4 c 1
 536 -11 452 -18 417 -18 c 0
 311 -18 238 0 174 53 c 0
 105 110 54 190 54 318 c 0
EndSplineSet
EndChar

StartChar: D
Encoding: 68 68 3
Width: 768
VWidth: 0
Flags: W
LayerCount: 2
Fore
SplineSet
103 625 m 0
 181 625 232 630 314 630 c 0
 362 630 438 625 497 601 c 0
 577 569 631 514 669 439 c 0
 687 403 701 363 701 317 c 0
 701 149 564 0 355 -3 c 0
 288 -3 252 3 164 3 c 0
 118 3 78 -2 44 -6 c 1
 39 1 37 10 37 20 c 0
 37 25 37 30 38 35 c 1
 53 39 70 41 82 47 c 0
 90 51 94 66 94 72 c 0
 104 188 105 391 105 407 c 2
 105 548 l 2
 105 567 98 579 76 581 c 0
 68 582 59 582 48 582 c 1
 46 590 44 596 44 603 c 0
 44 610 46 618 50 627 c 1
 64 626 95 625 103 625 c 0
600 316 m 0
 600 364 579 460 508 516 c 0
 452 560 400 587 283 587 c 0
 246 587 201 582 200 550 c 0
 194 355 189 273 189 142 c 0
 189 115 190 81 194 65 c 0
 200 42 251 42 292 42 c 2
 311 42 l 2
 504 42 600 140 600 316 c 0
EndSplineSet
EndChar

StartChar: E
Encoding: 69 69 4
Width: 612
VWidth: 0
Flags: W
LayerCount: 2
Fore
SplineSet
536 614 m 1
 523 482 l 1
 516 480 508 480 496 480 c 1
 483 524 478 582 425 582 c 0
 350 582 276 579 201 578 c 1
 199 338 l 1
 397 343 l 2
 431 344 438 356 442 373 c 2
 452 414 l 1
 456 415 460 415 464 415 c 0
 474 415 483 413 491 408 c 1
 484 356 477 303 477 247 c 0
 477 235 477 222 478 210 c 1
 472 207 466 206 460 206 c 0
 450 206 441 209 436 215 c 1
 434 254 l 2
 432 289 409 289 374 291 c 0
 337 293 311 294 284 294 c 2
 198 294 l 1
 197 234 196 170 196 108 c 0
 196 59 207 46 246 46 c 2
 389 46 l 2
 474 46 497 109 513 155 c 1
 530 155 541 152 551 144 c 1
 532 74 l 2
 525 49 520 25 517 6 c 1
 506 0 l 1
 418 1 311 3 213 3 c 0
 161 3 103 0 55 -2 c 1
 51 6 49 14 49 21 c 0
 49 25 50 28 51 32 c 1
 51 32 57 35 69 39 c 0
 102 50 106 52 106 81 c 0
 108 235 115 382 115 533 c 0
 115 577 106 585 60 586 c 1
 58 592 57 597 57 602 c 0
 57 612 60 621 64 627 c 1
 105 624 151 622 196 622 c 0
 273 622 329 623 413 625 c 2
 524 628 l 1
 536 614 l 1
EndSplineSet
EndChar

StartChar: F
Encoding: 70 70 5
Width: 531
VWidth: 0
Flags: W
LayerCount: 2
Fore
SplineSet
204 581 m 1
 200 336 l 1
 357 341 l 2
 404 343 399 368 405 403 c 1
 410 404 415 405 420 405 c 0
 428 405 436 404 444 400 c 1
 440 350 439 337 439 307 c 0
 439 277 443 218 443 218 c 1
 437 215 431 213 425 213 c 0
 418 213 411 215 404 217 c 1
 398 262 l 2
 397 273 391 281 386 284 c 0
 371 293 337 294 316 294 c 2
 199 294 l 1
 198 252 196 204 196 158 c 2
 196 136 l 2
 196 100 196 67 207 53 c 0
 215 43 256 39 280 38 c 1
 284 33 286 26 286 20 c 0
 286 10 282 1 280 -3 c 1
 280 -3 201 2 160 2 c 0
 114 2 56 -3 56 -3 c 1
 53 3 51 13 51 23 c 0
 51 29 52 34 53 38 c 1
 89 43 l 2
 102 45 104 54 105 68 c 0
 114 244 119 391 119 545 c 0
 119 586 104 583 62 588 c 1
 61 593 59 600 59 605 c 0
 59 623 67 627 67 627 c 1
 67 627 147 623 248 623 c 0
 299 623 354 624 412 626 c 0
 436 627 492 631 492 631 c 1
 502 622 l 1
 502 622 491 503 488 478 c 1
 488 478 480 475 472 475 c 0
 467 475 461 476 456 478 c 1
 454 489 455 506 452 522 c 0
 443 574 428 582 390 582 c 0
 345 582 204 581 204 581 c 1
EndSplineSet
EndChar

StartChar: G
Encoding: 71 71 6
Width: 714
VWidth: 0
Flags: W
LayerCount: 2
Fore
SplineSet
629 23 m 1
 613 8 l 1
 576 -7 452 -18 417 -18 c 0
 216 -18 50 94 50 288 c 0
 50 465 175 627 403 627 c 0
 483 627 563 607 563 607 c 1
 571 622 l 1
 577 624 583 624 589 624 c 0
 595 624 601 624 607 622 c 1
 607 622 606 490 606 484 c 1
 600 482 595 480 589 480 c 0
 585 480 580 481 575 483 c 1
 554 521 530 548 530 548 c 1
 530 548 487 583 410 583 c 0
 251 583 151 456 151 297 c 0
 151 148 267 28 414 28 c 0
 502 28 539 47 539 47 c 1
 543 82 546 130 546 174 c 0
 546 193 544 211 542 227 c 0
 538 257 518 264 478 266 c 0
 457 267 428 269 428 269 c 1
 425 275 423 284 423 290 c 0
 423 297 425 304 430 310 c 1
 469 310 504 308 545 308 c 0
 588 308 634 310 669 314 c 1
 671 310 672 305 672 300 c 0
 672 295 671 290 671 286 c 1
 657 279 641 261 637 240 c 0
 631 210 626 162 626 132 c 0
 626 118 629 35 629 23 c 1
EndSplineSet
EndChar

StartChar: H
Encoding: 72 72 7
Width: 792
VWidth: 0
Flags: W
LayerCount: 2
Fore
SplineSet
98 137 m 0
 100 233 105 269 105 354 c 18
 105 503 l 2
 105 525 105 548 101 567 c 0
 97 588 90 592 74 592 c 2
 40 592 l 1
 37 597 35 605 35 613 c 0
 35 620 37 626 41 631 c 1
 71 630 120 626 151 626 c 0
 184 626 232 629 261 630 c 1
 265 626 266 620 266 613 c 0
 266 606 265 598 263 593 c 1
 237 592 l 2
 204 591 197 583 195 550 c 0
 191 485 189 417 187 354 c 1
 604 354 l 1
 604 503 l 2
 604 525 602 546 598 565 c 0
 594 586 565 588 549 588 c 2
 536 588 l 1
 533 594 531 602 531 609 c 0
 531 617 533 625 537 630 c 1
 537 630 546 630 560 629 c 0
 585 627 625 624 650 624 c 0
 675 624 704 627 726 629 c 0
 745 630 759 630 759 630 c 1
 763 626 764 619 764 612 c 0
 764 604 763 595 761 589 c 1
 737 589 l 2
 701 589 695 583 694 550 c 0
 688 443 684 325 684 241 c 2
 684 175 l 2
 684 137 685 99 691 61 c 0
 694 46 710 45 731 44 c 2
 752 43 l 1
 754 39 755 29 755 24 c 0
 755 15 753 7 750 1 c 1
 750 1 689 2 636 2 c 0
 599 2 526 -1 526 -1 c 1
 526 -1 521 9 521 17 c 0
 521 26 525 41 525 41 c 1
 525 41 556 43 580 45 c 0
 596 46 599 115 599 137 c 0
 599 165 601 220 601 241 c 2
 601 306 l 1
 186 306 l 1
 186 283 185 261 185 241 c 2
 185 152 l 2
 185 121 186 87 192 57 c 0
 195 44 210 43 228 43 c 2
 255 43 l 1
 257 39 259 29 259 24 c 0
 259 15 258 9 255 1 c 1
 255 1 190 2 137 2 c 0
 100 2 28 -1 28 -1 c 1
 28 -1 23 9 23 17 c 0
 23 26 27 41 27 41 c 1
 69 44 l 2
 74 44 90 54 93 65 c 0
 98 87 98 122 98 137 c 0
EndSplineSet
EndChar

StartChar: I
Encoding: 73 73 8
Width: 330
VWidth: 0
Flags: W
LayerCount: 2
Fore
SplineSet
204 94 m 2
 204 62 207 45 248 42 c 0
 258 41 277 41 300 40 c 1
 302 36 304 27 304 22 c 0
 304 13 303 7 300 -1 c 1
 300 -1 207 3 155 3 c 0
 93 3 27 -3 27 -3 c 1
 27 -3 20 10 20 18 c 0
 20 27 24 41 24 41 c 1
 52 41 l 2
 102 41 120 42 120 136 c 0
 120 215 125 281 125 353 c 2
 125 502 l 2
 125 524 125 547 121 566 c 0
 117 587 110 591 94 591 c 2
 37 591 l 1
 34 596 32 604 32 612 c 0
 32 619 34 625 38 630 c 1
 68 629 140 625 171 625 c 0
 204 625 274 629 301 631 c 1
 305 627 306 619 306 612 c 0
 306 605 305 596 303 591 c 1
 257 590 l 2
 224 589 215 582 213 549 c 0
 210 502 207 370 207 353 c 0
 207 329 204 213 204 135 c 2
 204 94 l 2
EndSplineSet
EndChar

StartChar: J
Encoding: 74 74 9
Width: 296
VWidth: 0
Flags: W
LayerCount: 2
Fore
SplineSet
111 567 m 0
 110 588 95 589 86 589 c 2
 38 588 l 1
 35 593 33 602 33 610 c 0
 33 617 35 623 39 628 c 1
 60 627 81 627 102 627 c 0
 157 627 213 629 261 633 c 1
 265 629 266 620 266 613 c 0
 266 606 265 598 263 593 c 1
 238 592 l 2
 214 591 204 583 203 560 c 0
 201 518 201 471 201 424 c 0
 201 298 200 242 200 72 c 0
 200 57 197 30 194 12 c 0
 176 -89 111 -215 10 -215 c 0
 -34 -215 -75 -180 -75 -144 c 0
 -75 -114 -47 -92 -22 -92 c 0
 10 -92 15 -144 57 -144 c 0
 111 -144 117 -28 117 86 c 2
 117 350 l 2
 117 424 115 504 111 567 c 0
EndSplineSet
EndChar

StartChar: K
Encoding: 75 75 10
Width: 638
VWidth: 0
Flags: W
LayerCount: 2
Fore
SplineSet
400 540 m 0
 412 550 421 561 421 571 c 0
 421 579 410 594 379 594 c 1
 376 599 374 603 374 611 c 0
 374 618 375 621 379 628 c 1
 409 627 454 626 485 626 c 0
 518 626 565 628 594 629 c 1
 597 624 598 618 598 611 c 0
 598 602 596 593 594 587 c 1
 557 587 l 2
 535 587 536 586 518 574 c 0
 406 497 255 375 255 375 c 1
 255 375 396 188 496 90 c 0
 525 61 540 52 577 34 c 0
 584 30 600 30 617 28 c 1
 619 25 619 20 619 15 c 0
 619 4 616 -7 611 -12 c 1
 547 -10 501 -7 449 32 c 0
 393 74 335 138 287 196 c 0
 229 265 186 324 186 324 c 1
 186 264 185 210 184 152 c 0
 184 121 186 87 192 57 c 0
 195 44 210 43 228 43 c 2
 255 43 l 1
 257 39 259 29 259 24 c 0
 259 15 258 9 255 1 c 1
 255 1 190 2 137 2 c 0
 100 2 24 -1 24 -1 c 1
 24 -1 19 7 19 17 c 0
 19 30 24 44 24 44 c 1
 66 46 l 2
 95 47 95 103 96 132 c 0
 100 268 107 365 107 503 c 0
 107 525 106 548 102 567 c 0
 98 588 86 593 70 593 c 2
 40 593 l 1
 37 598 35 605 35 613 c 0
 35 620 37 626 41 631 c 1
 45 631 49 631 53 631 c 0
 79 631 111 627 151 627 c 0
 184 627 234 631 263 632 c 1
 267 628 268 620 268 613 c 0
 268 606 267 597 265 592 c 1
 221 590 198 594 195 550 c 0
 191 485 189 443 187 380 c 1
 270 441 320 475 400 540 c 0
EndSplineSet
EndChar

StartChar: L
Encoding: 76 76 11
Width: 546
VWidth: 0
Flags: W
LayerCount: 2
Fore
SplineSet
38 -2 m 1
 35 3 33 11 33 20 c 0
 33 27 34 34 37 39 c 1
 37 39 59 41 68 42 c 0
 84 44 91 48 95 64 c 0
 99 77 99 94 99 109 c 0
 102 212 107 264 107 353 c 2
 107 517 l 2
 107 553 105 585 70 585 c 2
 43 585 l 1
 41 589 39 597 39 604 c 0
 39 613 41 623 45 627 c 1
 75 626 120 623 151 623 c 0
 184 623 247 624 276 625 c 1
 280 621 281 614 281 607 c 0
 281 600 280 590 278 585 c 1
 237 585 l 2
 204 585 198 577 196 544 c 0
 189 388 184 126 184 90 c 0
 184 68 186 44 186 44 c 1
 234 42 268 42 310 42 c 0
 331 42 352 43 373 44 c 0
 446 46 470 106 484 148 c 0
 488 159 490 170 502 170 c 0
 519 170 519 160 519 145 c 0
 519 134 510 98 502 76 c 0
 494 55 493 26 487 4 c 1
 476 -2 l 1
 386 3 234 3 136 3 c 0
 101 3 55 -1 38 -2 c 1
EndSplineSet
EndChar

StartChar: M
Encoding: 77 77 12
Width: 866
VWidth: 0
Flags: W
LayerCount: 2
Fore
SplineSet
738 152 m 0
 738 121 739 87 745 57 c 0
 748 44 745 40 763 40 c 2
 790 40 l 1
 792 36 794 26 794 21 c 0
 794 12 791 4 787 -2 c 1
 787 -2 743 2 690 2 c 0
 653 2 573 -1 573 -1 c 1
 573 -1 568 9 568 17 c 0
 568 26 572 41 572 41 c 1
 638 43 l 2
 643 43 643 54 646 65 c 0
 651 87 651 122 651 137 c 0
 654 270 659 378 664 504 c 0
 664 513 667 532 664 532 c 0
 660 532 649 509 642 494 c 0
 593 388 532 269 486 175 c 1
 439 83 l 2
 419 46 412 24 399 24 c 0
 385 24 379 47 361 83 c 2
 167 476 l 2
 158 494 151 512 146 512 c 0
 143 512 141 503 141 477 c 0
 141 339 142 220 142 132 c 0
 142 116 143 96 147 80 c 0
 156 47 190 40 225 37 c 1
 225 37 229 26 229 17 c 0
 229 9 224 -1 224 -1 c 1
 224 -1 159 3 122 3 c 0
 69 3 28 0 28 0 c 1
 25 4 21 12 21 20 c 0
 21 26 23 30 26 35 c 1
 62 47 75 51 80 72 c 0
 86 102 87 136 87 167 c 0
 87 282 95 469 95 547 c 2
 95 575 l 2
 95 584 89 590 38 592 c 1
 36 599 35 606 35 613 c 0
 35 620 36 627 37 633 c 1
 100 631 152 630 211 630 c 2
 273 630 l 1
 275 622 276 614 276 608 c 0
 276 600 275 593 274 587 c 1
 255 588 237 589 218 589 c 0
 210 589 206 587 206 583 c 0
 206 579 210 573 214 565 c 2
 320 356 l 2
 362 273 416 148 420 148 c 0
 427 148 535 394 634 566 c 0
 638 573 642 579 642 583 c 0
 642 587 639 589 629 589 c 0
 621 589 606 589 595 588 c 1
 592 593 591 603 591 611 c 0
 591 618 592 624 596 629 c 1
 626 628 673 627 704 627 c 0
 737 627 765 628 794 629 c 1
 798 625 800 620 800 613 c 0
 800 606 799 598 797 593 c 1
 780 592 l 2
 747 590 749 583 748 550 c 0
 744 425 738 281 738 152 c 0
EndSplineSet
EndChar

StartChar: N
Encoding: 78 78 13
Width: 792
VWidth: 0
Flags: W
LayerCount: 2
Fore
SplineSet
645 -4 m 2
 637 -4 l 2
 624 -4 619 8 613 17 c 0
 590 49 568 91 524 135 c 2
 176 480 l 2
 162 493 154 506 148 506 c 0
 141 506 141 498 141 477 c 0
 141 318 142 206 143 93 c 0
 143 54 149 48 216 40 c 0
 222 39 235 37 243 36 c 1
 243 36 247 26 247 17 c 0
 247 9 242 -1 242 -1 c 1
 242 -1 159 2 122 2 c 0
 69 2 20 0 20 0 c 1
 18 5 17 11 17 16 c 0
 17 24 19 31 21 35 c 1
 88 49 81 50 82 72 c 0
 86 130 89 267 89 381 c 0
 89 412 88 441 88 467 c 0
 88 494 88 519 86 540 c 0
 84 557 68 576 54 584 c 0
 46 589 34 595 34 595 c 1
 34 595 32 603 33 610 c 0
 34 620 38 627 38 627 c 1
 49 627 132 625 154 623 c 0
 162 622 180 610 197 588 c 0
 227 548 597 174 604 174 c 0
 608 174 612 400 612 526 c 0
 612 555 602 576 592 578 c 2
 532 588 l 1
 529 593 527 601 527 609 c 0
 527 616 529 622 533 627 c 1
 563 626 605 623 636 623 c 0
 660 623 688 627 713 627 c 0
 723 627 730 627 740 626 c 1
 743 621 743 615 743 609 c 0
 743 601 742 592 740 587 c 1
 714 587 l 2
 681 587 670 581 668 548 c 0
 661 430 656 307 656 188 c 0
 656 90 662 43 662 14 c 0
 662 4 662 -4 645 -4 c 2
EndSplineSet
EndChar

StartChar: O
Encoding: 79 79 14
Width: 695
VWidth: 0
Flags: W
LayerCount: 2
Fore
SplineSet
348 -18 m 0
 174 -18 20 95 20 298 c 0
 20 480 162 628 346 628 c 0
 539 628 674 483 674 316 c 0
 674 96 507 -18 348 -18 c 0
320 576 m 0
 212 576 122 468 122 338 c 0
 122 154 236 34 371 34 c 0
 490 34 574 130 574 258 c 0
 574 416 496 576 320 576 c 0
EndSplineSet
EndChar

StartChar: P
Encoding: 80 80 15
Width: 531
VWidth: 0
Flags: W
LayerCount: 2
Fore
SplineSet
414 435 m 0
 414 535 353 591 266 591 c 0
 220 591 197 586 191 539 c 0
 187 510 185 472 185 462 c 2
 181 274 l 1
 181 274 205 270 235 270 c 0
 286 270 414 285 414 435 c 0
98 545 m 0
 98 575 85 585 63 585 c 0
 58 585 47 584 42 584 c 1
 38 589 36 596 36 603 c 0
 36 611 38 619 41 624 c 1
 41 624 149 629 249 629 c 0
 333 629 507 609 507 431 c 0
 507 312 391 226 273 226 c 0
 233 226 183 231 180 231 c 1
 180 231 179 201 179 155 c 2
 179 80 l 2
 179 60 196 41 225 41 c 2
 275 41 l 1
 279 36 280 30 280 23 c 0
 280 14 278 5 275 -1 c 1
 275 -1 181 0 140 0 c 0
 110 0 82 -2 52 -2 c 2
 30 -2 l 1
 27 5 25 12 25 20 c 0
 25 26 26 34 29 40 c 1
 74 40 l 2
 87 40 85 53 86 67 c 0
 94 245 98 392 98 545 c 0
EndSplineSet
EndChar

StartChar: Q
Encoding: 81 81 16
Width: 707
VWidth: 0
Flags: W
LayerCount: 2
Fore
SplineSet
354 582 m 0
 211 582 128 422 128 292 c 0
 128 144 226 23 342 23 c 0
 532 23 580 197 580 322 c 0
 580 480 462 582 354 582 c 0
247 -1 m 0
 122 42 26 136 26 294 c 0
 26 476 166 628 350 628 c 0
 543 628 681 479 681 312 c 0
 681 144 570 27 440 -7 c 0
 418 -13 410 -14 410 -24 c 0
 410 -29 411 -35 414 -44 c 0
 429 -91 460 -139 480 -165 c 0
 511 -204 584 -237 632 -237 c 0
 652 -237 686 -234 686 -234 c 1
 689 -238 691 -243 691 -249 c 0
 691 -253 690 -257 689 -261 c 1
 689 -261 666 -281 610 -281 c 0
 525 -281 441 -248 392 -191 c 0
 371 -166 330 -105 313 -54 c 0
 297 -6 294 -17 247 -1 c 0
EndSplineSet
EndChar

StartChar: R
Encoding: 82 82 17
Width: 565
VWidth: 0
Flags: W
LayerCount: 2
Fore
SplineSet
101 555 m 0
 101 569 98 580 80 582 c 0
 73 583 59 583 53 583 c 1
 49 590 47 596 47 604 c 0
 47 610 48 614 51 619 c 1
 51 619 124 628 249 628 c 0
 333 628 492 585 492 448 c 0
 492 381 454 330 402 304 c 0
 391 299 374 290 362 286 c 0
 349 281 348 279 348 276 c 0
 348 267 350 263 356 248 c 0
 392 161 442 58 494 40 c 0
 511 34 542 32 542 32 c 1
 544 26 545 22 545 17 c 0
 545 9 543 1 540 -4 c 1
 532 -6 514 -6 501 -6 c 0
 394 -6 323 90 275 238 c 0
 268 260 262 264 239 264 c 0
 208 264 178 266 176 266 c 1
 176 266 179 201 179 155 c 2
 179 80 l 2
 179 60 188 42 217 40 c 2
 243 38 l 1
 247 33 248 27 248 20 c 0
 248 11 246 2 243 -4 c 1
 243 -4 181 0 140 0 c 0
 103 0 82 0 30 -3 c 1
 27 4 25 10 25 18 c 0
 25 24 28 32 31 38 c 1
 74 40 l 2
 87 41 92 60 92 74 c 0
 97 253 101 399 101 555 c 0
405 444 m 0
 405 544 336 590 248 590 c 0
 202 590 181 583 181 536 c 0
 181 489 178 439 178 386 c 2
 178 304 l 1
 192 303 216 302 232 302 c 0
 312 302 405 323 405 444 c 0
EndSplineSet
EndChar

StartChar: S
Encoding: 83 83 18
Width: 534
VWidth: 0
Flags: W
LayerCount: 2
Fore
SplineSet
254 28 m 0
 352 28 407 80 407 138 c 0
 407 313 73 237 73 459 c 0
 73 574 198 634 308 634 c 0
 347 634 405 622 405 622 c 1
 407 635 l 1
 413 637 421 639 428 639 c 0
 435 639 442 637 448 635 c 1
 452 564 457 535 468 466 c 1
 459 460 450 460 437 459 c 1
 427 482 l 2
 408 526 402 542 374 562 c 0
 352 578 343 590 286 590 c 0
 200 590 157 533 157 486 c 0
 157 327 502 370 502 158 c 0
 502 30 379 -18 242 -18 c 0
 189 -18 136 -12 93 -12 c 0
 83 -12 77 -13 73 -13 c 0
 66 -13 64 -10 61 6 c 0
 52 61 43 110 33 164 c 1
 40 170 50 175 60 175 c 0
 63 175 67 174 70 173 c 1
 80 153 93 129 105 108 c 0
 114 93 123 78 137 66 c 0
 162 44 206 28 254 28 c 0
EndSplineSet
EndChar

StartChar: T
Encoding: 84 84 19
Width: 609
VWidth: 0
Flags: W
AnchorPoint: "l;bl" 150 10 basechar 0
AnchorPoint: "l;x" 50 360 basechar 0
AnchorPoint: "l;hi" 0 580 basechar 0
AnchorPoint: "l;o" 100 180 basechar 0
AnchorPoint: "r;bl" 459.5 10 basechar 0
AnchorPoint: "r;x" 559.5 360 basechar 0
AnchorPoint: "r;hi" 609.5 580 basechar 0
AnchorPoint: "r;o" 509.5 180 basechar 0
LayerCount: 2
Fore
SplineSet
310.75 621 m 0
 343.75 621 377.75 622 525.75 626 c 0
 542.75 626 565.75 630 580.75 630 c 0
 595.75 630 602.75 624 602.75 614 c 0
 602.75 607 597.75 575 595.75 559 c 0
 592.75 531 590.75 508 583.75 476 c 1
 581.75 475 576.75 474 570.75 474 c 0
 563.75 474 555.75 475 552.75 476 c 1
 549.75 492 549.75 510 546.75 528 c 0
 539.75 575 509.75 576 409.75 576 c 0
 369.75 576 352.75 576 351.75 555 c 0
 348.75 476 347.75 412 347.75 349 c 2
 347.75 187 l 2
 347.75 168 347.75 139 348.75 117 c 0
 350.75 71 351.75 48 379.75 45 c 0
 389.75 44 416.75 41 439.75 40 c 1
 441.75 36 443.75 27 443.75 22 c 0
 443.75 13 442.75 7 439.75 -1 c 1
 439.75 -1 346.75 3 294.75 3 c 0
 261.75 3 219.75 -3 191.75 -3 c 2
 169.75 -3 l 1
 166.75 3 164.75 10 164.75 18 c 0
 164.75 26 166.75 34 170.75 40 c 1
 199.75 41 l 2
 249.75 43 259.75 42 259.75 136 c 2
 259.75 382 l 2
 259.75 440 261.75 504 261.75 559 c 0
 261.75 568 259.75 574 247.75 575 c 0
 234.75 576 214.75 578 195.75 578 c 0
 180.75 578 166.75 578 150.75 577 c 0
 112.75 575 70.75 561 57.75 533 c 0
 47.75 510 44.75 498 38.75 477 c 1
 35.75 475 30.75 474 25.75 474 c 0
 18.75 474 10.75 476 6.75 479 c 1
 8.75 523 11.75 526 15.75 559 c 8
 18.75 582 19.75 597 22.75 619 c 0
 23.75 627 32.75 631 42.75 631 c 0
 53.75 631 82.75 628 103.75 627 c 0
 192.75 622 284.75 621 310.75 621 c 0
EndSplineSet
EndChar

StartChar: U
Encoding: 85 85 20
Width: 792
VWidth: 0
Flags: W
LayerCount: 2
Fore
SplineSet
547 627 m 1
 575 624 628 623 660 623 c 0
 689 623 728 626 756 627 c 1
 760 623 761 616 761 609 c 0
 761 601 760 592 758 586 c 1
 734 585 l 2
 698 584 695 569 694 550 c 0
 691 503 686 440 685 356 c 0
 683 155 656 -12 391 -12 c 0
 254 -12 107 28 96 172 c 0
 94 200 93 240 93 283 c 0
 93 390 98 516 98 519 c 0
 98 537 98 554 95 570 c 0
 92 592 69 593 53 593 c 2
 33 593 l 1
 30 599 28 606 28 613 c 0
 28 619 30 627 34 632 c 1
 63 629 115 626 147 626 c 0
 179 626 231 629 258 631 c 1
 262 627 263 621 263 614 c 0
 263 606 262 597 260 591 c 1
 241 591 l 2
 207 591 189 588 187 550 c 0
 185 515 181 412 181 323 c 0
 181 299 181 276 182 256 c 0
 188 136 210 34 421 34 c 0
 620 34 634 186 634 367 c 0
 634 432 634 503 628 560 c 0
 627 573 614 579 586 582 c 0
 576 583 554 584 545 584 c 1
 542 590 541 599 541 606 c 0
 541 614 543 622 547 627 c 1
EndSplineSet
EndChar

StartChar: V
Encoding: 86 86 21
Width: 700
VWidth: 1
Flags: W
LayerCount: 2
Fore
SplineSet
28 589 m 1
 25 595 24 601 24 608 c 0
 24 615 25 623 29 629 c 1
 59 628 95 628 127 628 c 0
 159 628 190 628 221 629 c 1
 225 625 226 619 226 612 c 0
 226 604 225 595 223 589 c 1
 195 589 l 2
 179 589 173 585 173 562 c 0
 173 546 313 253 362 152 c 0
 370 135 378 121 380 121 c 0
 384 121 389 135 397 152 c 0
 441 250 566 532 566 554 c 0
 566 570 565 583 536 586 c 0
 526 587 514 588 505 588 c 1
 502 594 501 602 501 610 c 0
 501 618 502 624 506 629 c 1
 538 629 549 624 592 624 c 0
 625 624 646 630 673 630 c 1
 677 626 678 619 678 611 c 0
 678 603 677 594 675 589 c 1
 639 585 612 540 576 456 c 2
 470 211 l 1
 435 135 407 57 379 -10 c 0
 376 -16 372 -18 366 -18 c 0
 360 -18 354 -16 351 -10 c 0
 265 175 163 380 102 500 c 0
 71 561 60 589 28 589 c 1
EndSplineSet
EndChar

StartChar: W
Encoding: 87 87 22
Width: 956
VWidth: 0
Flags: W
LayerCount: 2
Fore
SplineSet
28 589 m 1
 25 595 24 601 24 608 c 0
 24 615 25 623 29 629 c 1
 59 628 95 626 127 626 c 0
 159 626 190 628 221 629 c 1
 224 623 225 617 225 611 c 0
 225 603 223 595 221 589 c 1
 195 589 l 2
 179 589 173 587 173 564 c 0
 173 548 294 252 334 152 c 0
 341 135 351 114 353 114 c 0
 357 114 366 133 374 150 c 0
 389 184 420 242 451 302 c 1
 356 500 l 2
 316 584 309 589 275 589 c 1
 272 597 271 604 271 610 c 0
 271 617 272 623 276 629 c 1
 306 628 345 628 377 628 c 0
 409 628 429 628 460 629 c 1
 464 625 465 619 465 612 c 0
 465 604 464 595 462 589 c 1
 445 589 l 2
 429 589 421 585 421 562 c 0
 421 554 457 472 497 386 c 1
 539 469 575 547 575 558 c 0
 575 579 558 589 523 589 c 1
 521 594 519 600 519 607 c 0
 519 614 521 621 524 626 c 1
 563 625 580 622 602 622 c 0
 631 622 639 626 683 627 c 1
 687 623 688 619 688 611 c 0
 688 603 687 594 685 589 c 1
 649 587 642 577 617 532 c 0
 590 484 558 411 521 338 c 1
 611 152 l 2
 621 132 625 121 629 121 c 0
 633 121 637 131 647 152 c 0
 691 250 815 536 815 558 c 0
 815 586 790 586 755 586 c 1
 753 592 751 599 751 607 c 0
 751 615 752 622 756 626 c 1
 788 626 799 624 842 624 c 0
 875 624 900 625 927 625 c 1
 931 621 932 614 932 606 c 0
 932 598 931 590 929 585 c 1
 886 582 863 532 824 444 c 2
 721 211 l 2
 687 135 657 57 629 -10 c 0
 626 -16 622 -18 616 -18 c 0
 610 -18 604 -16 601 -10 c 2
 474 259 l 1
 339 -5 l 2
 336 -11 332 -13 326 -13 c 0
 320 -13 311 -11 309 -5 c 0
 236 179 157 380 103 500 c 0
 75 562 60 587 28 589 c 1
EndSplineSet
EndChar

StartChar: X
Encoding: 88 88 23
Width: 666
VWidth: 0
Flags: W
LayerCount: 2
Fore
SplineSet
207 35 m 1
 209 31 210 26 210 21 c 0
 210 14 208 6 206 0 c 1
 176 0 140 4 125 4 c 0
 90 4 22 -1 22 -1 c 1
 22 -1 17 9 17 17 c 0
 17 26 21 36 21 36 c 1
 33 41 43 42 62 63 c 2
 278 292 l 2
 286 300 285 301 278 310 c 2
 108 533 l 2
 85 563 74 580 46 587 c 0
 40 589 33 589 26 589 c 1
 23 596 19 606 19 615 c 0
 19 620 20 625 23 629 c 1
 53 628 95 627 127 627 c 0
 159 627 209 628 240 629 c 1
 244 625 245 619 245 612 c 0
 245 604 244 597 242 591 c 1
 229 591 l 2
 194 591 193 584 193 575 c 0
 193 554 301 412 334 370 c 0
 344 358 343 358 353 370 c 2
 434 464 l 2
 475 512 514 552 514 564 c 0
 514 572 512 584 501 586 c 0
 491 587 477 588 468 588 c 1
 466 594 464 602 464 610 c 0
 464 616 465 621 468 625 c 1
 482 624 514 624 557 624 c 0
 590 624 614 626 641 626 c 1
 644 623 645 615 645 610 c 0
 645 602 642 595 640 589 c 1
 610 587 595 570 579 554 c 0
 531 509 466 434 420 385 c 2
 377 339 l 2
 371 332 367 331 373 323 c 2
 462 211 l 2
 525 132 584 40 636 37 c 1
 638 33 640 29 640 24 c 0
 640 15 638 5 635 -1 c 1
 635 -1 579 2 526 2 c 0
 489 2 416 -3 416 -3 c 1
 416 -3 411 9 411 17 c 0
 411 26 415 39 415 39 c 1
 415 39 432 40 456 42 c 0
 464 43 467 46 467 51 c 0
 467 62 452 81 438 101 c 2
 320 262 l 2
 313 272 313 271 305 262 c 0
 285 241 235 186 196 139 c 0
 168 105 146 80 146 62 c 0
 146 40 190 40 207 35 c 1
EndSplineSet
EndChar

StartChar: Y
Encoding: 89 89 24
Width: 694
VWidth: 1
Flags: W
LayerCount: 2
Fore
SplineSet
366 188 m 2
 366 169 366 140 367 118 c 0
 369 72 370 43 398 42 c 2
 458 40 l 1
 461 34 463 28 463 22 c 0
 463 14 460 5 455 -2 c 1
 455 -2 365 3 313 3 c 0
 278 3 220 -3 192 -4 c 1
 188 0 183 12 183 20 c 0
 183 26 185 33 189 39 c 1
 218 40 l 2
 268 42 278 43 278 137 c 2
 278 270 l 2
 278 287 277 293 270 302 c 2
 108 534 l 2
 87 565 74 581 46 588 c 0
 40 590 28 590 21 590 c 1
 18 597 16 607 16 616 c 0
 16 621 17 626 20 630 c 1
 50 629 95 628 127 628 c 0
 159 628 211 629 242 630 c 1
 246 626 247 620 247 613 c 0
 247 605 244 598 242 592 c 1
 229 592 l 2
 194 592 188 585 188 576 c 0
 188 554 306 392 338 348 c 0
 347 335 348 339 357 350 c 2
 451 465 l 2
 492 514 531 553 531 565 c 0
 531 591 494 592 470 592 c 1
 468 599 463 607 463 616 c 0
 463 620 464 624 467 629 c 1
 524 629 531 625 574 625 c 0
 607 625 639 627 666 627 c 1
 669 624 670 616 670 611 c 0
 670 603 667 598 665 592 c 1
 630 592 609 571 593 555 c 0
 526 491 445 386 385 318 c 0
 376 308 366 299 366 279 c 2
 366 188 l 2
EndSplineSet
EndChar

StartChar: Z
Encoding: 90 90 25
Width: 686
VWidth: 0
Flags: W
LayerCount: 2
Fore
SplineSet
476 583 m 0
 354 583 308 582 227 579 c 0
 211 578 143 577 116 532 c 0
 92 491 72 435 59 413 c 1
 56 412 51 410 47 410 c 0
 38 410 28 414 25 419 c 1
 40 476 59 572 75 632 c 0
 77 641 88 645 95 645 c 0
 113 645 126 626 128 625 c 0
 164 623 213 623 247 623 c 0
 366 623 474 627 637 632 c 1
 650 626 654 613 655 602 c 1
 526 470 311 232 183 62 c 0
 175 51 172 47 190 47 c 2
 426 47 l 2
 499 47 527 50 561 91 c 0
 590 125 639 201 639 201 c 1
 662 198 669 184 669 184 c 1
 638 117 615 56 590 -7 c 0
 584 -22 583 -30 566 -30 c 0
 553 -30 551 -26 546 -14 c 0
 542 -5 544 -1 530 -1 c 0
 419 -1 289 4 246 4 c 0
 188 4 122 2 53 -7 c 1
 42 -4 35 7 33 20 c 1
 38 32 52 44 73 66 c 0
 130 128 139 138 178 188 c 0
 282 318 387 420 501 566 c 0
 504 570 504 572 504 575 c 0
 504 583 492 583 476 583 c 0
EndSplineSet
EndChar

StartChar: a
Encoding: 97 97 26
Width: 372
VWidth: 0
Flags: HW
LayerCount: 2
Fore
SplineSet
31 84 m 0
 31 144 74 170 197 178 c 0
 208 179 218 180 230 181 c 1
 230 233 l 2
 230 297 185 312 161 312 c 0
 147 312 136 305 134 298 c 0
 127 272 127 272 102 262 c 2
 92 258 l 2
 85 255 72 250 61 250 c 0
 56 250 48 250 48 262 c 0
 48 288 76 315 95 327 c 0
 126 348 165 359 194 359 c 0
 254 359 293 325 293 264 c 0
 293 214 288 112 288 88 c 0
 288 52 300 41 316 41 c 0
 327 41 349 53 354 53 c 0
 362 53 363 43 363 34 c 0
 363 27 356 26 348 21 c 0
 329 11 292 -4 279 -4 c 0
 248 -4 243 4 231 44 c 1
 211 29 162 -1 130 -1 c 0
 47 -1 31 52 31 84 c 0
96 92 m 0
 96 48 133 40 157 40 c 0
 178 40 220 64 230 74 c 1
 230 154 l 1
 220 153 209 152 197 150 c 0
 128 139 96 137 96 92 c 0
EndSplineSet
EndChar

StartChar: b
Encoding: 98 98 27
Width: 432
VWidth: 0
Flags: HW
LayerCount: 2
Back
SplineSet
27 592.5 m 0
 27 594.5 28 596.75 27.5 598.25 c 1
 53.75 614.5 93.75 640.5 125 652.5 c 1
 131.5 650.25 139 647.25 142 642.25 c 1
 123.75 560.5 130.5 608.75 119.25 303.25 c 1
 119.25 303.25 191.75 353 249.75 353 c 0
 325.75 353 399.25 298 399.25 209 c 0
 399.25 148.25 381.25 101.75 339.5 65.5 c 0
 286.5 17.75 252.25 9.25 205.5 4.75 c 0
 183.25 2.5 138 2 110 2 c 1
 112.25 2 95 1.75 97.25 1.5 c 1
 71.75 0.75 51.5 6 51.5 39.25 c 0
 51.5 109.25 65 351.75 65 501.75 c 0
 65 514.75 64 526 63.25 538 c 0
 61.25 556.5 59 554 27.75 586.75 c 1
 28.25 588.25 27 589.75 27 592.5 c 0
115.5 170.75 m 0
 115.5 150.75 115.25 130.75 118.25 108.75 c 0
 124.25 67.75 160.25 44.75 209.5 44.75 c 0
 301 44.75 336.25 107.5 336.25 179.75 c 0
 336.25 251 277.25 306.5 194.75 306.5 c 0
 156.75 306.5 130.75 290.75 117.75 279.75 c 1
 116.75 255.75 115.5 232.75 115.5 170.75 c 0
EndSplineSet
Fore
SplineSet
27 592 m 0
 27 602 68 624 72 626 c 0
 86 634 114 651 130 651 c 0
 140 651 141 646 141 640 c 0
 141 633 137 623 136 616 c 0
 126 571 128 571 119 305 c 1
 119 305 192 353 250 353 c 0
 326 353 399 295 399 209 c 0
 399 148 381 103 340 66 c 0
 286 19 253 9 206 5 c 0
 184 3 145 2 117 2 c 2
 97 2 l 2
 69 2 52 6 52 39 c 0
 52 110 65 362 65 512 c 0
 65 542 64 550 42 571 c 0
 39 575 27 581 27 592 c 0
115 162 m 0
 115 145 115 129 118 110 c 0
 124 69 161 44 210 44 c 0
 298 44 336 102 336 170 c 0
 336 253 280 306 195 306 c 0
 160 306 131 289 118 278 c 1
 117 256 115 221 115 162 c 0
EndSplineSet
EndChar

StartChar: c
Encoding: 99 99 28
Width: 345
VWidth: 0
Flags: HWO
LayerCount: 2
Back
SplineSet
23 159 m 0
 23 228 60.25 291.25 114.5 327 c 0
 149 350 193.75 367 237.75 367 c 0
 236.75 367 320 361 320 319 c 0
 320 298 297.25 280 278.5 280 c 0
 252.5 280 222 310.25 195.75 310.25 c 0
 128.75 310.25 99 247.75 99 188.75 c 0
 99 66 167 43.75 212.75 43.75 c 0
 250.75 43.75 281 66.5 296 77.5 c 1
 299.75 72.5 308.5 61 311.75 49.25 c 1
 293.75 24.75 235.25 -2 192.25 -2 c 0
 87.5 -2 23 66.25 23 159 c 0
EndSplineSet
Fore
SplineSet
23 159 m 0
 23 228 60 291 114 327 c 0
 146 349 193 365 234 365 c 0
 263 365 320 353 320 319 c 0
 320 298 301 280 277 280 c 0
 247 280 222 310 196 310 c 0
 129 310 99 248 99 189 c 0
 99 66 167 44 213 44 c 0
 259 44 291 76 294 76 c 0
 300 76 308 67 308 56 c 0
 308 40 296 35 280 24 c 0
 259 9 218 -2 192 -2 c 0
 87 -2 23 66 23 159 c 0
EndSplineSet
EndChar

StartChar: d
Encoding: 100 100 29
Width: 432
VWidth: 0
Flags: HW
LayerCount: 2
Back
SplineSet
15 171 m 0
 15 278.25 112.5 359.25 203.75 359.25 c 0
 262 359.25 305.75 336.5 305.75 336.5 c 1
 305.75 336.5 311.75 475.25 311.75 526.25 c 0
 311.75 552.5 305.25 556.25 263.25 581 c 1
 260.25 588 262.25 597.75 263.25 600.75 c 1
 278 613.75 340 651.75 370 659.75 c 1
 376.25 656.75 381.5 650.75 383.5 645.75 c 1
 375.5 571.75 359.25 518 359.25 110.25 c 2
 359.25 51.5 l 2
 359.25 46.25 363.25 39 376.25 39 c 0
 383.25 39 407.75 48.75 417.75 50.75 c 1
 419.75 48.75 420.5 43.5 420.5 36.5 c 0
 420.5 29.5 419.5 21.5 418.5 16.5 c 1
 399.5 11.5 342.5 -4.5 305.5 -17.5 c 1
 298.5 -13.5 297.25 -9.75 297.25 -9.75 c 1
 298.5 48.25 l 1
 298.5 48.25 238.75 1.75 184.75 1.75 c 0
 88.25 1.75 15 82.75 15 171 c 0
81 206.5 m 0
 81 134.5 119.5 56.75 207.5 56.75 c 0
 253 56.75 287.5 67 299 76.75 c 1
 303.25 267.75 l 1
 289.75 298.25 230.25 321.25 207 321.25 c 0
 125.25 321.25 81 268.5 81 206.5 c 0
EndSplineSet
Fore
SplineSet
15 171 m 0
 15 280 113 359 204 359 c 0
 262 359 306 336 306 336 c 1
 306 336 312 475 312 526 c 0
 312 548 307 554 281 570 c 0
 275 574 260 579 260 591 c 0
 260 606 294 622 312 632 c 0
 333 644 361 660 369 660 c 0
 380 660 384 654 384 646 c 0
 384 643 379 616 377 598 c 0
 371 534 359 437 359 110 c 2
 359 48 l 2
 359 42 360 36 366 36 c 0
 371 36 393 44 404 48 c 0
 417 53 420 53 420 36 c 0
 420 18 419 16 405 12 c 0
 350 -4 325 -18 312 -18 c 0
 304 -18 302 -11 302 3 c 2
 302 46 l 1
 294 44 255 2 185 2 c 0
 89 2 15 79 15 171 c 0
81 200 m 0
 81 126 127 52 206 52 c 0
 229 52 260 56 299 77 c 1
 303 268 l 1
 289 298 237 322 207 322 c 0
 123 322 81 266 81 200 c 0
EndSplineSet
EndChar

StartChar: e
Encoding: 101 101 30
Width: 352
VWidth: 0
Flags: HW
LayerCount: 2
Back
SplineSet
98 212 m 5
 98 212 158 228 232 246 c 5
 232 246 211 318 162 318 c 4
 106 318 98 212 98 212 c 5
25 166 m 0
 25 241 53 295 104 330 c 0
 126 346 156 356 188 356 c 0
 260 356 289 295 309 260 c 1
 315 261 315 262 321 262 c 0
 328 262 329 246 329 240 c 0
 329 233 327 230 318 229 c 0
 254 217 152 196 96 183 c 1
 96 111 126 45 194 45 c 0
 274 45 294 95 306 95 c 0
 318 95 321 76 321 70 c 0
 321 54 255 -6 178 -6 c 0
 81 -6 25 67 25 166 c 0
EndSplineSet
Fore
SplineSet
25 166 m 0
 25 241 53 295 104 330 c 0
 126 346 156 356 188 356 c 0
 260 356 289 295 309 260 c 1
 315 261 315 262 321 262 c 0
 328 262 329 246 329 240 c 0
 329 233 327 230 318 229 c 0
 254 217 152 196 96 183 c 1
 96 111 124 44 192 44 c 0
 270 44 294 95 306 95 c 0
 318 95 321 77 321 71 c 0
 321 55 256 -6 177 -6 c 0
 84 -6 25 67 25 166 c 0
98 212 m 1
 98 212 158 228 232 246 c 1
 232 246 211 318 162 318 c 0
 106 318 98 212 98 212 c 1
EndSplineSet
EndChar

StartChar: f
Encoding: 102 102 31
Width: 294
VWidth: 0
Flags: HW
LayerCount: 2
Fore
SplineSet
24 327 m 0
 24 348 27 348 40 348 c 0
 44 348 86 347 86 347 c 1
 86 459 100 536 171 594 c 0
 198 616 237 651 309 651 c 0
 351 651 366 630 366 606 c 0
 366 582 358 563 332 563 c 0
 307 563 291 588 245 588 c 0
 230 588 221 583 211 577 c 0
 155 543 148 443 148 364 c 2
 148 347 l 1
 148 347 250 350 259 350 c 0
 275 350 276 342 276 327 c 2
 276 319 l 2
 276 305 273 299 259 299 c 0
 255 299 146 303 146 303 c 1
 146 217 146 186 149 62 c 0
 150 42 157 42 188 42 c 2
 205 42 l 2
 220 42 223 38 223 24 c 0
 223 5 220 2 204 2 c 2
 105 2 l 2
 97 2 42 -3 40 -3 c 0
 26 -3 25 7 25 25 c 0
 25 31 34 33 44 35 c 0
 70 40 82 42 82 73 c 2
 86 303 l 1
 86 303 51 304 41 304 c 0
 26 304 24 304 24 327 c 0
EndSplineSet
EndChar

StartChar: g
Encoding: 103 103 32
Width: 408
VWidth: 0
Flags: HW
LayerCount: 2
Fore
SplineSet
-3 -157 m 0
 -3 -87 109 -52 109 -51 c 0
 109 -50 22 -34 22 -2 c 0
 22 53 142 55 142 58 c 0
 142 61 25 83 25 194 c 0
 25 302 109 353 179 353 c 0
 211 353 233 343 250 335 c 1
 270 337 334 342 358 342 c 0
 383 342 384 334 384 322 c 2
 384 314 l 2
 384 296 379 296 373 296 c 2
 285 295 l 1
 285 295 326 250 326 198 c 0
 326 114 252 70 208 58 c 0
 182 51 112 33 112 17 c 0
 112 -7 200 -8 238 -10 c 0
 292 -13 323 -14 351 -38 c 0
 377 -60 386 -80 386 -101 c 0
 386 -150 358 -180 321 -207 c 0
 274 -240 216 -259 174 -259 c 0
 113 -259 -3 -244 -3 -157 c 0
61 -140 m 0
 61 -184 120 -210 188 -210 c 0
 247 -210 334 -185 334 -124 c 0
 334 -88 298 -66 237 -62 c 0
 215 -61 183 -60 161 -58 c 1
 119 -66 61 -95 61 -140 c 0
87 220 m 0
 87 157 122 93 200 93 c 0
 249 93 270 141 270 181 c 0
 270 241 228 311 155 311 c 0
 115 311 87 268 87 220 c 0
EndSplineSet
EndChar

StartChar: h
Encoding: 104 104 33
Width: 470
VWidth: 0
Flags: HW
LayerCount: 2
Fore
SplineSet
20 21 m 0
 20 29 28 28 33 30 c 0
 44 34 66 34 68 90 c 0
 71 208 72 317 72 410 c 0
 72 476 72 474 70 516 c 0
 69 546 66 553 43 565 c 0
 28 573 28 576 28 583 c 0
 28 596 67 616 78 622 c 0
 100 634 132 652 138 652 c 0
 140 652 150 650 150 642 c 0
 150 632 144 620 140 596 c 0
 136 576 135 567 134 541 c 0
 132 467 131 323 131 287 c 1
 188 341 232 351 256 351 c 0
 346 351 385 284 385 226 c 0
 385 216 384 112 384 73 c 0
 384 37 398 35 427 35 c 0
 444 35 450 35 450 19 c 0
 450 5 449 0 431 0 c 2
 367 0 l 2
 340 0 289 -3 286 -3 c 0
 276 -3 272 -1 272 17 c 0
 272 32 279 29 292 30 c 0
 311 32 320 34 321 68 c 0
 321 94 323 155 323 180 c 0
 323 262 292 306 229 306 c 0
 199 306 161 290 131 260 c 1
 131 228 130 172 130 125 c 0
 130 92 130 63 135 48 c 0
 139 36 144 35 178 35 c 0
 191 35 195 34 195 15 c 0
 195 2 192 2 183 2 c 0
 78 2 57 -3 35 -3 c 0
 22 -3 20 5 20 21 c 0
EndSplineSet
EndChar

StartChar: i
Encoding: 105 105 34
Width: 252
VWidth: 0
Flags: HW
LayerCount: 2
Fore
SplineSet
42 15 m 0
 42 27 48 28 57 30 c 0
 72 34 83 40 84 60 c 0
 86 84 86 121 86 152 c 2
 86 256 l 2
 86 270 84 274 65 286 c 0
 52 294 44 294 44 306 c 0
 44 314 59 321 92 339 c 0
 110 348 139 364 149 364 c 0
 159 364 161 355 161 353 c 0
 161 346 152 302 152 194 c 2
 152 62 l 2
 152 38 166 38 194 38 c 0
 212 38 218 38 218 22 c 0
 218 14 217 3 207 3 c 0
 203 3 115 2 115 2 c 2
 102 2 72 -5 54 -5 c 0
 44 -5 42 3 42 15 c 0
90 534 m 0
 90 555 109 576 131 576 c 0
 151 576 172 559 172 535 c 0
 172 511 151 492 131 492 c 0
 112 492 90 510 90 534 c 0
EndSplineSet
EndChar

StartChar: j
Encoding: 106 106 35
Width: 216
VWidth: 0
Flags: HW
LayerCount: 2
Back
SplineSet
-39 -202 m 4
 -39 -184 -26 -166 -5 -166 c 4
 17 -166 26 -190 48 -190 c 4
 73 -190 83 -155 85 -123 c 4
 87 -96 86 -68 86 -40 c 4
 86 62 83 164 80 264 c 4
 80 274 71 281 56 286 c 4
 35 294 34 294 34 302 c 4
 34 315 36 316 91 340 c 4
 112 349 135 365 138 365 c 4
 142 365 148 361 148 353 c 4
 148 348 146 260 146 183 c 4
 146 125 147 87 147 30 c 4
 147 -11 143 -66 138 -104 c 4
 128 -180 74 -241 14 -241 c 4
 -18 -241 -39 -231 -39 -202 c 4
78 538 m 4
 78 558 96 576 117 576 c 4
 138 576 156 559 156 537 c 4
 156 515 139 498 118 498 c 4
 98 498 78 516 78 538 c 4
EndSplineSet
Fore
SplineSet
-39 -202 m 0
 -39 -184 -26 -166 -5 -166 c 0
 17 -166 26 -190 48 -190 c 0
 84 -190 86 -125 86 -82 c 0
 86 35 83 150 80 264 c 0
 80 274 71 281 56 286 c 0
 35 294 34 294 34 302 c 0
 34 315 36 316 91 340 c 0
 112 349 135 365 138 365 c 0
 142 365 148 361 148 353 c 0
 148 348 146 260 146 183 c 0
 146 125 147 87 147 30 c 0
 147 -11 143 -66 138 -104 c 0
 128 -180 74 -241 14 -241 c 0
 -18 -241 -39 -231 -39 -202 c 0
78 538 m 0
 78 558 96 576 117 576 c 0
 138 576 156 559 156 537 c 0
 156 515 139 498 118 498 c 0
 98 498 78 516 78 538 c 0
EndSplineSet
EndChar

StartChar: k
Encoding: 107 107 36
Width: 477
VWidth: 0
Flags: HW
LayerCount: 2
Fore
SplineSet
33 13 m 0
 33 28 40 28 52 30 c 0
 82 35 76 51 79 179 c 0
 82 269 82 383 82 454 c 2
 82 521 l 2
 82 547 61 558 56 562 c 0
 46 570 41 570 41 581 c 0
 41 593 54 597 94 621 c 0
 104 628 140 647 150 647 c 0
 158 647 159 641 159 635 c 0
 159 624 156 618 154 609 c 0
 146 572 143 513 143 297 c 2
 143 198 l 1
 230 256 278 281 278 295 c 0
 278 307 259 311 241 311 c 0
 233 311 232 311 232 322 c 2
 232 328 l 2
 232 338 233 338 244 338 c 0
 280 338 373 340 421 340 c 0
 430 340 432 340 432 329 c 2
 432 322 l 2
 432 310 432 310 420 310 c 0
 363 310 298 252 194 196 c 1
 257 137 372 36 448 36 c 0
 460 36 462 33 462 28 c 2
 462 22 l 2
 462 13 462 1 454 1 c 2
 418 1 l 2
 306 1 272 56 148 162 c 1
 140 156 l 1
 140 61 l 2
 140 39 148 34 181 34 c 0
 195 34 198 34 198 19 c 0
 198 4 196 3 186 3 c 2
 178 3 l 2
 105 3 63 -3 52 -3 c 0
 34 -3 33 0 33 13 c 0
EndSplineSet
EndChar

StartChar: l
Encoding: 108 108 37
Width: 239
VWidth: 0
Flags: HW
LayerCount: 2
Fore
SplineSet
33 7 m 0
 33 21 34 26 44 27 c 0
 61 29 68 34 70 44 c 0
 74 65 79 86 80 184 c 0
 82 318 82 373 82 503 c 0
 82 541 75 549 55 563 c 0
 45 570 38 573 38 586 c 0
 38 597 38 597 87 622 c 0
 131 644 132 645 140 645 c 0
 153 645 158 639 158 633 c 0
 158 627 156 617 155 611 c 0
 147 580 145 557 144 505 c 0
 142 335 141 288 141 106 c 0
 141 59 145 36 190 36 c 0
 192 36 203 37 205 37 c 0
 208 37 213 36 213 24 c 0
 213 7 209 6 202 6 c 0
 146 6 44 -4 44 -4 c 2
 36 -4 33 -4 33 7 c 0
EndSplineSet
EndChar

StartChar: m
Encoding: 109 109 38
Width: 684
VWidth: 0
Flags: HW
LayerCount: 2
Fore
SplineSet
25 12 m 0
 25 27 26 29 42 31 c 0
 55 32 75 41 78 70 c 0
 79 82 82 145 82 160 c 0
 82 175 82 190 79 239 c 0
 78 254 63 261 49 267 c 0
 39 271 29 275 29 284 c 0
 29 304 35 300 72 326 c 0
 106 349 119 360 126 360 c 0
 133 360 137 355 137 348 c 0
 137 344 135 268 135 268 c 1
 167 302 220 348 270 348 c 0
 332 348 343 302 355 271 c 1
 367 284 413 347 484 347 c 0
 559 347 592 269 592 180 c 0
 592 144 591 129 591 94 c 0
 591 39 593 34 636 31 c 0
 652 30 658 31 658 16 c 0
 658 2 657 -1 645 -1 c 0
 618 -1 583 1 571 1 c 0
 551 1 523 0 499 0 c 0
 484 0 480 0 480 13 c 0
 480 27 482 30 493 31 c 0
 524 33 527 39 528 48 c 0
 530 72 531 101 531 112 c 2
 531 126 l 2
 531 200 530 290 453 290 c 0
 413 290 379 272 360 244 c 1
 362 224 362 190 362 169 c 0
 362 131 360 86 360 55 c 0
 360 34 375 31 406 31 c 0
 418 31 420 27 420 22 c 0
 420 10 420 -2 410 -2 c 0
 403 -2 368 2 338 2 c 0
 304 2 268 -3 258 -3 c 0
 247 -3 246 4 246 18 c 0
 246 28 250 31 258 31 c 0
 281 33 294 34 297 48 c 0
 305 84 306 116 306 162 c 0
 306 227 306 293 233 293 c 0
 204 293 175 274 159 262 c 0
 144 250 138 244 138 194 c 0
 138 146 140 86 142 56 c 0
 143 37 160 32 176 32 c 0
 196 32 198 29 198 13 c 0
 198 0 196 -2 184 -2 c 0
 157 -1 146 0 112 0 c 0
 64 0 67 -3 37 -3 c 0
 26 -3 25 3 25 12 c 0
EndSplineSet
EndChar

StartChar: n
Encoding: 110 110 39
Width: 470
VWidth: 0
Flags: W
LayerCount: 2
Fore
SplineSet
29 14.5 m 0
 29 19.5 30 24.75 31 30.75 c 1
 68.25 40.75 79.25 25.5 79.25 83.5 c 1
 79.25 132.25 79.25 159.5 78 207 c 1
 76.75 255.75 78 266.25 68.25 272.5 c 0
 59.75 278.75 42 284 30.5 289.5 c 1
 29.5 292.5 28.5 296.5 28.5 301.5 c 0
 28.5 305.5 29.25 307.5 30.25 310.5 c 1
 56 330.5 100 354.75 127 364.5 c 1
 125.5 364.5 134.25 358.25 139.75 352.75 c 1
 142.25 342.75 142.25 333.25 142.25 317 c 1
 142.25 305.25 142.5 286.75 141.25 276 c 1
 180.75 317.5 236 349.75 281.25 349.75 c 0
 357.75 349.75 381.75 281.25 381.75 194.25 c 0
 381.75 122.25 378.5 95 378.5 72 c 0
 378.5 26.5 412.5 43.25 441.75 34.75 c 1
 443.75 31.75 443.75 26 443.75 20 c 0
 443.75 15 444.25 9.25 443.5 6.25 c 1
 348.5 4.25 313.75 0 274.75 0 c 1
 272.75 5 272.75 10 272.75 15 c 0
 272.75 20 272.75 24 274.75 29 c 1
 302.75 36 313.75 32.25 315.75 62.25 c 0
 316.75 83.25 317.75 118 317.75 153 c 0
 317.75 174 318.25 190.5 317.25 205.5 c 0
 315.25 245.5 306.25 291.5 242.75 291.5 c 0
 209.75 291.5 158.75 271 143.75 258 c 1
 143.75 224 142.75 210 142.75 170 c 0
 142.75 134 142.5 113 144.5 78 c 0
 146.5 29.25 165 35.5 202 32 c 1
 203 30 204 24.5 204 20.5 c 0
 204 12.5 202 5.75 201 2.75 c 1
 117.5 2.75 100.75 -3.75 32 -3.5 c 1
 30 2.5 29 8.5 29 14.5 c 0
EndSplineSet
EndChar

StartChar: o
Encoding: 111 111 40
Width: 395
VWidth: 0
Flags: W
LayerCount: 2
Fore
SplineSet
23.5 167.25 m 0
 23.5 263.25 92.5 354.75 205.75 354.75 c 0
 300.5 354.75 372.5 271.5 372.5 182.75 c 0
 372.5 58.25 287.5 -4.75 203.5 -4.75 c 0
 113.75 -4.75 23.5 53.5 23.5 167.25 c 0
98.5 193.5 m 0
 98.5 108 143.25 35.75 208.75 35.75 c 0
 269.75 35.75 300.5 89 300.5 160 c 0
 300.5 232 257.25 315.25 187 315.25 c 0
 141 315.25 98.5 265.25 98.5 193.5 c 0
EndSplineSet
EndChar

StartChar: p
Encoding: 112 112 41
Width: 409
VWidth: 5
Flags: W
LayerCount: 2
Fore
SplineSet
23.5 -251.75 m 0
 23.5 -244.75 25 -238.5 28 -236.5 c 1
 46.75 -230.25 66.25 -234.75 65.75 -181.5 c 0
 65.25 -122 66.5 16 66.5 123 c 0
 66.5 176.75 66.75 224 65.5 252.5 c 0
 64.25 274 32 283.25 24.25 290.5 c 0
 24.4797862575 291.651520175 23.25 292.25 23.25 294.25 c 0
 23.25 301.25 26.75 311.5 28.75 315.5 c 1
 60 336.75 87.25 353.25 107.75 369.75 c 1
 111.75 368.75 118.75 365.5 122 361 c 1
 119.75 311 l 1
 171 344.25 194.75 350.5 228.25 350.5 c 0
 291.25 350.5 369.5 299.5 369.5 183.25 c 0
 369.5 71.25 293.5 -5.25 200 -5.25 c 0
 161 -5.25 121.75 7.25 121.75 7.25 c 1
 121.75 22.25 124.5 -185.5 124.5 -170.5 c 1
 125.75 -230.5 136.75 -226.25 188 -228.25 c 1
 188.75 -231.25 190 -234.75 190 -239.25 c 0
 190 -247 188 -256 188 -262.25 c 1
 95 -262.25 81.5 -266.5 55.5 -266.5 c 0
 37.5 -266.5 48 -266.5 27.25 -265.75 c 1
 24.25 -262.75 23.5 -256.75 23.5 -251.75 c 0
120.5 281.25 m 1
 123 73.25 l 1
 149.25 49 172.25 36.5 208.5 36.5 c 0
 278.25 36.5 317 84 317 163 c 0
 317 229.25 270 303.75 200.5 303.75 c 0
 148.5 303.75 120.5 281.25 120.5 281.25 c 1
EndSplineSet
EndChar

StartChar: q
Encoding: 113 113 42
Width: 437
VWidth: -5
Flags: W
LayerCount: 2
Fore
SplineSet
28 167 m 0
 28 285.5 121.75 357.25 228 357.25 c 0
 277.5 357.25 305.75 340.25 326.5 331.75 c 1
 340.25 340.75 360.5 348.25 367.75 353.25 c 1
 373.5 352 377.5 342.75 379.5 340.5 c 1
 379.5 344.5 373.5 300.5 372.5 268.5 c 0
 370.5 184.5 362 -14 362 -132.25 c 0
 362 -158.25 362 -178 362.25 -183 c 0
 362.5 -200.25 361.5 -221.5 398 -221.5 c 2
 406.75 -221.5 l 1
 407.5 -223.25 408 -228.25 408 -234.25 c 0
 408 -242 408.5 -254.25 402 -260.75 c 1
 334.5 -260.75 265.5 -267.5 257.5 -267.5 c 0
 253.25 -267.5 237.5 -268.5 227.5 -259 c 1
 227.5 -249.75 227.25 -239.75 233.75 -228.25 c 1
 257.5 -224.5 289 -221.5 288.75 -232.5 c 1
 301.75 -180.25 304 34.5 304 34.5 c 1
 274.5 11.25 223 -7 191 -7 c 0
 109.5 -7 28 61 28 167 c 0
96 187 m 0
 96 105.75 153.25 51 221 51 c 0
 283 51 306.5 68.75 306.5 68.75 c 1
 309.75 121.75 311.75 146.75 311.75 222.75 c 0
 311.75 282.75 261.75 311.25 213.75 311.25 c 0
 142 311.25 96 266.75 96 187 c 0
EndSplineSet
EndChar

StartChar: r
Encoding: 114 114 43
Width: 322
VWidth: -2
Flags: W
LayerCount: 2
Fore
SplineSet
49.25 298.5 m 0
 49.25 304.5 50.25 310 53.25 314 c 1
 81.5 330.5 112.25 353 142.25 368.25 c 1
 146.75 367 154.5 366.25 159.5 361.25 c 1
 159.5 361.25 154.75 312.75 151.25 271.75 c 1
 189.25 309.75 222.25 354.5 263 354.5 c 0
 299.5 354.5 298.75 325.25 298.75 302.5 c 0
 298.75 291.5 292.75 260 267.5 260 c 0
 245.017219055 260 245.434848673 275.738374373 225.702886025 275.738374373 c 0
 197.295235199 275.738374373 169.723187835 258.301960012 151.25 231.25 c 1
 151.75 191 149.75 150 149.75 107 c 0
 149.75 50 161.5 42 198.5 42 c 2
 237.5 42 l 1
 241.5 36 243.5 28 243.5 20 c 0
 243.5 14 242.5 9.5 240.5 3.5 c 1
 184.5 2.5 146.5 -3 81.5 -3 c 0
 77 -3 71.25 -2 53 1.75 c 1
 51 4.75 50 10.5 50 15.5 c 0
 50 23.5 51.75 32.25 52.75 36.25 c 1
 56.75 37.5 71 40.75 76 32.5 c 0
 88.5 46.25 88.5 224.75 88.75 242.5 c 0
 88.75 265.5 84.5 268.25 50.5 284.25 c 1
 50.25 288.25 49.25 293.5 49.25 298.5 c 0
EndSplineSet
EndChar

StartChar: s
Encoding: 115 115 44
Width: 324
VWidth: -5
Flags: W
LayerCount: 2
Fore
SplineSet
38 60 m 0
 38 77 39.25 99 42.5 117.75 c 1
 46.5 119.75 51 122 55 122 c 0
 59 122 62.5 121 66.5 119 c 1
 104.5 61.5 106.5 36.75 153.25 36.75 c 0
 189.25 36.75 213.25 58.25 213.25 90.25 c 0
 213.25 177 48.25 150.5 48.25 268.25 c 0
 48.25 346.34205787 130.998898277 363.153554318 190.116524596 363.153554318 c 0
 210.165593522 363.153554318 238.763378524 358.407747651 249.5 351.25 c 1
 253.5 327.25 260.75 298.75 263.75 275.75 c 1
 261.25 266.75 249.25 263.5 240.25 263.5 c 1
 224.25 287.5 192.75 322.5 158.25 322.5 c 0
 130.25 322.5 108.75 304.25 108.75 282.25 c 0
 108.75 209 285.5 231 285.5 105.75 c 0
 285.5 30.75 217.25 -8 142 -8 c 0
 92 -8 58 -1.5 41 8.5 c 1
 39 25.25 38 41.25 38 60 c 0
EndSplineSet
EndChar

StartChar: t
Encoding: 116 116 45
Width: 308
VWidth: 3
Flags: W
LayerCount: 2
Fore
SplineSet
33.75 331.5 m 1
 76.75 365 94.5 385.75 133.5 423.75 c 1
 135.5 425 137.75 424.75 139.75 424.75 c 0
 142.25 424.75 145.5 425.25 148.5 422.25 c 1
 146.25 354.75 l 1
 162.75 354.75 216.5 358.5 247 358.5 c 0
 259.75 358.5 265.5 357.5 269 356.5 c 1
 270 348.5 272 336 272 328.5 c 0
 272 319.5 271.25 310.5 267.25 304.5 c 1
 143.5 307 l 1
 143.5 307 139 180 139 151 c 0
 139 100.5 142.5 53 194.5 53 c 0
 227.5 53 261.5 84 261.5 84 c 1
 268.25 79.5 273.75 69.5 275.75 61.5 c 1
 268.75 38.5 212.75 -5.75 171 -5.75 c 0
 97 -5.75 73 45 73 115 c 0
 73 133 80 300.75 80 300.75 c 1
 37.75 302 l 1
 33.75 315 33.75 318.5 33.75 331.5 c 1
EndSplineSet
EndChar

StartChar: u
Encoding: 117 117 46
Width: 452
VWidth: 0
Flags: W
LayerCount: 2
Fore
SplineSet
25 321.75 m 0
 25 326.75 24.75 332 26.5 335.75 c 1
 59 346.75 122.75 355 140.75 355 c 1
 147.25 348.5 l 1
 131.75 265 129.75 132.75 129.75 151 c 0
 129.75 81.75 150.75 55.5 207.75 55.5 c 0
 259.5 55.5 300 93.25 300 93.25 c 1
 299.75 80 302 285.25 302 272 c 1
 302 293.75 279.75 300.5 257.5 313.75 c 1
 256.5 317.5 255.5 320.25 255.5 324.25 c 0
 255.5 328.5 256.5 332.5 258.5 336.25 c 1
 255.75 343.5 326.75 355 352.75 355 c 0
 364.75 355 375.25 344.25 377.75 341 c 1
 369 274.5 365.5 258.25 365.5 110.25 c 0
 365.5 83.75 365.25 54.5 374.25 52 c 1
 371.75 52 431.5 65.25 429.5 65.25 c 1
 441 62 440.75 52.75 440.75 45.75 c 0
 440.75 39.75 440 33.25 439 28.25 c 1
 419 22.25 362 4 320 -10 c 1
 312 -9 303 -7 300 0 c 1
 301.25 60.25 l 1
 301.25 60.25 241.75 -7.75 164 -7.75 c 0
 104 -7.75 60 31 60 98 c 0
 60 146 70.5 271.75 70.5 276.75 c 0
 70.5 281.5 45.75 303 26 310 c 1
 25 314 25 317.75 25 321.75 c 0
EndSplineSet
EndChar

StartChar: v
Encoding: 118 118 47
Width: 398
VWidth: 4
Flags: W
LayerCount: 2
Fore
SplineSet
12 334 m 0
 12 353 17.25 355.5 32.75 355.5 c 2
 50.75 355.5 l 2
 95.75 355.5 162.25 352.75 171.25 352.75 c 1
 173.25 348.75 174.25 345 174.25 339 c 0
 174.25 334 173.5 328 171.5 323 c 1
 139.5 321 119.5 322 119.5 303 c 0
 119.5 283 158 189 185.75 105.25 c 0
 190.5 91.25 194.75 90.25 200.75 105.25 c 0
 218.75 152.25 289 277.5 289 291.75 c 0
 289 308.75 274.75 312 249 319 c 1
 247 324 246 330.25 246 336.5 c 0
 246 342.5 247 349.5 250 354.75 c 1
 313 355.75 346.75 355.5 367.75 355.5 c 1
 387.75 355.5 370 354.25 375 353 c 1
 375 353 379.25 345 379.25 340 c 0
 379.25 314 363.25 331 335 278 c 0
 285.25 185.75 233 77 192 -2 c 1
 188 -4 183 -6 175 -6 c 0
 167 -6 161.5 -4.75 157.75 -1.75 c 1
 113 96.75 71 242 48 286 c 0
 42 298 32.75 316.75 14 322.25 c 1
 13.25 323.75 12 327.5 12 334 c 0
EndSplineSet
EndChar

StartChar: w
Encoding: 119 119 48
Width: 582
VWidth: 0
Flags: W
LayerCount: 2
Fore
SplineSet
18.25 329 m 0
 18.25 339 20 348 24 351 c 1
 26 351 35 352 48 352 c 1
 68 352 140.25 347 179 347 c 1
 181 340 181 334 181 330 c 0
 181 323 179.25 319.5 177.75 313.5 c 1
 154.25 311 122.75 318.5 122.75 288 c 0
 122.75 279 162.25 163.5 180.25 108.5 c 0
 185.25 92.5 187 101.5 190 108.5 c 0
 215.75 184.75 272 326.5 275.75 339.5 c 1
 280.25 342.75 288.75 343.75 295 343.75 c 0
 304.25 343.75 310.25 341.75 313 338.25 c 1
 316.5 319 352 167.75 376 105.75 c 0
 383 86.75 384.25 95.75 388.25 103.75 c 0
 411.25 154.75 467 273 467 287.5 c 0
 467 313.25 431.25 309.5 423.5 311 c 1
 421 321 418.75 320.25 418.75 334 c 0
 418.75 338.75 419.75 342.25 422.75 349.25 c 1
 449.75 349.25 512.5 348.25 557.5 348.25 c 1
 560.5 340.25 560.5 333.25 560.5 328.25 c 0
 560.5 307.25 528.5 299 508.75 260.25 c 0
 466 173 413.5 59.75 385 -6 c 1
 382.25 -9 375.25 -11.25 369.5 -11.25 c 0
 361.5 -11.25 352 -9 349.25 -5 c 1
 327.75 42.75 299 145.25 280.25 206.5 c 0
 275.25 222.5 272 220.5 267 207.5 c 0
 246 148.5 207.75 39.75 189.75 -8.25 c 1
 185.75 -12.25 177.75 -12 172.25 -12 c 0
 164 -12 157 -12.5 151.5 -7 c 1
 127.5 53 72.25 232.25 48.25 290.5 c 0
 42.25 306.5 32 308 19 315 c 1
 18 318 18.25 323 18.25 329 c 0
EndSplineSet
EndChar

StartChar: x
Encoding: 120 120 49
Width: 380
VWidth: 0
Flags: W
LayerCount: 2
Fore
SplineSet
19.5 16.5 m 0
 19.5 23.5 20 33 24 39 c 1
 41 44 44.75 51 58.5 66.25 c 2
 160.75 174.25 l 1
 125.5 228.5 112 246 62 304 c 0
 54 314 42.5 316.75 36.25 316 c 1
 33.25 318 32.75 323.25 32.75 329.25 c 0
 32.75 336.25 34.75 345.25 36.75 348.25 c 1
 49.75 351.25 75.25 351 95.25 351 c 0
 167.5 351 158.75 350.75 182.75 347 c 1
 184.75 343 185.75 340.75 185.75 336.75 c 0
 185.75 332.75 184.75 327.75 183.75 321.75 c 1
 161.75 317 157.5 315.5 157.5 302.5 c 0
 157.5 273.75 198.5 229.75 202 214.25 c 1
 255 282.25 l 2
 252.25 280.75 259.5 289 259.5 296.5 c 0
 259.5 306 259.25 311.25 228.75 323.5 c 1
 228 325.25 226.75 328 226.75 332.25 c 0
 226.75 336.75 227.75 342.5 232 347.5 c 1
 316 346.5 324 350 341 350 c 0
 346 350 344.75 348.75 356.5 346.75 c 1
 358.5 342 359.25 337 359.25 333.75 c 0
 359.25 330 358 326.25 356 321 c 1
 347.25 320.75 268.5 230.25 219 185.5 c 1
 294.75 75 l 2
 317.25 42 319.75 37 356.75 37 c 1
 358.75 32 358.25 29.75 358.25 24.75 c 0
 358.25 16.75 358.25 11.75 357.25 5.5 c 1
 351.5 3 344 2.5 332 2.5 c 0
 297 2.5 247 4.5 216 4.5 c 2
 205.75 4.5 l 1
 202.25 9.75 198.75 17.75 198.75 25.5 c 0
 198.75 29.5 199.5 34 202.25 37.25 c 1
 226 44 233.5 47.5 233.5 54 c 0
 233.5 57.75 230.5 63.75 225.75 71.75 c 2
 180 145 l 1
 130 82 l 2
 124.25 74 121.5 68.75 121.5 63.25 c 0
 121.5 53.5 131 45.75 155.25 35.75 c 1
 156.25 30.75 157.25 25.75 157.25 21.75 c 0
 157.25 17.75 156.5 13.25 155.5 7.25 c 1
 117.75 3.75 65 3.75 51 3.75 c 0
 33 3.75 41.75 3.75 20.25 5.5 c 1
 19.25 8.5 19.5 12.5 19.5 16.5 c 0
EndSplineSet
EndChar

StartChar: y
Encoding: 121 121 50
Width: 393
VWidth: 0
Flags: W
LayerCount: 2
Fore
SplineSet
9.5 335.5 m 0
 9.5 341.5 10.5 347.75 14.5 355.75 c 1
 11.5 358.75 15.75 358.75 18.5 358.75 c 0
 39.75 358.75 87.75 356 171.75 355.75 c 1
 173.5 351.25 174.25 347.75 174.25 342 c 0
 174.25 335.75 173.25 328.5 171.5 321 c 1
 137.5 319 117.75 325 117.75 311 c 0
 117.75 288 187.25 112.25 190.75 92.5 c 1
 216.75 141.5 294.5 281.5 294.5 294 c 0
 294.5 311 275 313 249 321 c 1
 247 326 247 332 247 337 c 0
 247 343 248 349.75 250 353.75 c 1
 236.5 356.25 258.5 355.75 278.5 355.75 c 0
 316.75 355.75 362.25 354.5 378.25 355 c 1
 379.25 351 380.25 345 380.25 338 c 0
 380.25 333 379.25 327.75 377.25 323.75 c 1
 357 311.5 348.75 302 333.75 273 c 0
 294.75 198 197.5 5.5 120 -135 c 0
 81.75 -203.75 81.5 -229.25 63.5 -229.25 c 0
 59 -229.25 10.5 -217.5 10.5 -197.5 c 0
 10.5 -185.5 56.25 -148.75 69.25 -123.75 c 2
 150.25 17.5 l 1
 120.5 96.25 72.5 216.5 46.5 293 c 0
 43.25 303.25 27.25 312.5 12.5 321.5 c 1
 10.5 325.5 9.5 330.5 9.5 335.5 c 0
EndSplineSet
EndChar

StartChar: z
Encoding: 122 122 51
Width: 382
VWidth: -2
Flags: W
LayerCount: 2
Fore
SplineSet
33.25 27 m 1
 73 82 206.5 241.75 255.25 303 c 1
 197.5 303 118.75 303 114 294.5 c 0
 108.25 283.75 108 282 92 239 c 1
 89 238 81 237 76 237 c 0
 72 237 70.25 237 67.25 239 c 1
 58.25 257 51.25 285 51.25 319 c 0
 51.25 331 55.25 340.75 72.25 346.75 c 1
 152.25 343.75 204 341.25 246 341.25 c 0
 282 341.25 304.75 341.75 330 341.75 c 1
 332.5 337.75 339.5 328 339.5 317 c 1
 287.5 248.75 172 114.25 126.25 45.25 c 1
 207.75 44.25 l 2
 235.75 43.75 252.5 47.5 260.5 51.5 c 0
 274.5 57.5 310.75 102 320 109 c 1
 326 109 337.75 105.5 342.5 97.5 c 1
 331.25 67.5 308.5 9.75 299.75 -0.25 c 1
 315 -0.25 204.75 0.25 111.25 0.25 c 1
 119.75 0.25 44.75 0.5 53.5 0.5 c 1
 41.25 9.25 38.25 15.75 33.25 27 c 1
EndSplineSet
EndChar

StartChar: zero
Encoding: 48 48 53
Width: 470
VWidth: 0
Flags: W
LayerCount: 2
Fore
SplineSet
418 178 m 0
 418 72 329 -10 231 -10 c 0
 134 -10 47 58 47 168 c 0
 47 278 122 368 234 368 c 0
 343 368 418 276 418 178 c 0
218 329 m 0
 156 329 125 264 125 202 c 0
 125 126 168 30 241 30 c 0
 313 30 336 97 336 163 c 0
 336 235 287 329 218 329 c 0
EndSplineSet
EndChar

StartChar: seven
Encoding: 55 55 54
Width: 424
VWidth: 0
Flags: W
LayerCount: 2
Fore
SplineSet
85 358 m 0
 90 349 89 348 104 348 c 2
 310 348 l 2
 332 348 367 352 376 352 c 0
 386 352 392 337 392 327 c 0
 392 315 365 271 357 254 c 0
 281 90 196 -64 113 -221 c 1
 102 -223 92 -224 83 -224 c 0
 74 -224 66 -223 56 -222 c 1
 50 -217 50 -213 48 -206 c 1
 130 -95 201 32 265 162 c 2
 308 250 l 2
 312 258 322 280 322 280 c 1
 271 280 187 278 99 275 c 0
 74 274 87 234 61 234 c 0
 50 234 43 244 43 257 c 0
 43 278 45 296 45 313 c 0
 45 330 39 367 39 386 c 0
 39 395 49 401 58 401 c 0
 64 401 69 399 72 392 c 0
 76 382 80 367 85 358 c 0
EndSplineSet
EndChar

StartChar: eight
Encoding: 56 56 55
Width: 496
VWidth: 0
Flags: W
LayerCount: 2
Fore
SplineSet
430 171 m 0
 430 68 342 -12 236 -12 c 0
 177 -12 124 29 98 54 c 0
 70 81 59 130 59 162 c 0
 59 245 179 300 188 304 c 1
 188 304 97 350 97 449 c 0
 97 525 185 588 257 588 c 0
 331 588 403 544 403 463 c 0
 403 380 345 358 292 331 c 1
 354 305 430 262 430 171 c 0
215 287 m 1
 215 287 139 240 139 151 c 0
 139 89 181 29 242 29 c 0
 304 29 354 66 354 137 c 0
 354 237 215 287 215 287 c 1
172 456 m 0
 172 401 213 376 262 348 c 1
 262 348 337 374 337 465 c 0
 337 509 309 552 256 552 c 0
 198 552 172 504 172 456 c 0
EndSplineSet
EndChar

StartChar: nine
Encoding: 57 57 56
Width: 470
VWidth: 0
Flags: W
LayerCount: 2
Fore
SplineSet
218 331 m 0
 160 331 126 264 126 202 c 0
 126 127 164 32 237 32 c 0
 326 32 336 98 336 162 c 0
 336 256 291 331 218 331 c 0
307 16 m 1
 276 2 245 -7 223 -7 c 0
 117 -7 47 70 47 168 c 0
 47 279 122 368 234 368 c 0
 353 368 417 269 417 154 c 0
 417 127 411 99 403 72 c 0
 361 -69 236 -167 94 -217 c 1
 86 -214 80 -199 80 -187 c 1
 178 -130 248 -87 307 16 c 1
EndSplineSet
EndChar

StartChar: R.001
Encoding: 65536 -1 57
Width: 671
VWidth: 0
Flags: W
LayerCount: 2
Fore
SplineSet
101 555 m 0
 101 569 92.1107702763 584 74 584 c 2
 49 584 l 1
 46 589 43 595 43 603 c 0
 43 607 44 612 47 617 c 1
 47 617 114 628 239 628 c 0
 339 628 490 585 490 448 c 0
 490 372 459 342 384 292 c 0
 375 286 372 283 372 279 c 0
 372 274 376 269 381 257 c 0
 419 156 537 59 589 41 c 2
 653 19 l 1
 654 16 655 12 655 9 c 0
 655 2 652 -5 649 -10 c 1
 642 -10 l 2
 502 -10 343 83 291 238 c 0
 286 255 281 260 261 260 c 0
 253 260 238 259 230 259 c 0
 194 259 176 260 176 260 c 1
 177 203 177 146 178 88 c 0
 179 63 181 44 208 37 c 0
 219 34 234 33 247 32 c 1
 250 28 251 22 251 17 c 0
 251 10 249 2 246 -4 c 1
 246 -4 181 2 140 2 c 0
 92 2 82 0 30 -3 c 1
 27 4 25 10 25 18 c 0
 25 24 26 29 29 35 c 1
 74 40 l 2
 87 41 92 60 92 74 c 0
 97 253 101 399 101 555 c 0
395 441 m 0
 395 510 346 589 257 589 c 0
 229 589 199 587 193 576 c 0
 189 570 188 556 187 544 c 0
 179 469 178 384 178 299 c 1
 211 299 l 2
 248 299 288 300 318 312 c 0
 366 331 395 388 395 441 c 0
EndSplineSet
EndChar

StartChar: T.001
Encoding: 65537 -1 58
Width: 674
VWidth: 0
Flags: W
LayerCount: 2
Fore
SplineSet
470 -3 m 1
 470 -3 389 1 327 1 c 0
 297 1 246 -5 231 -5 c 0
 221 -5 212 -5 202 -4 c 1
 198 4 196 12 196 20 c 0
 196 27 197 34 201 41 c 1
 252 42 l 2
 290 43 292 61 293 135 c 2
 296 561 l 2
 296 575 282 581 265 581 c 2
 145 581 l 2
 115 581 84 580 72 561 c 0
 63 546 51 513 51 513 c 1
 46 512 44 510 38 510 c 0
 31 510 27 513 21 520 c 1
 22 531 21 538 25 550 c 0
 36 586 47 635 61 668 c 1
 65 670 69 671 73 671 c 0
 81 671 88 668 93 664 c 1
 93 659 91 653 91 647 c 0
 91 638 93 629 105 629 c 0
 272 629 317 623 455 623 c 0
 485 623 520 624 562 625 c 0
 602 626 610 634 616 646 c 0
 620 654 624 667 624 667 c 1
 627 668 630 669 634 669 c 0
 642 669 650 666 655 662 c 1
 647 621 633 550 623 503 c 1
 616 499 601 500 594 504 c 1
 591 524 596 557 586 566 c 1
 562 578 540 580 486 580 c 2
 430 580 l 2
 413 580 408 580 391 577 c 1
 386 572 381 562 381 553 c 2
 381 117 l 1
 382 33 386 42 474 40 c 1
 476 36 477 31 477 26 c 0
 477 15 473 2 470 -3 c 1
EndSplineSet
EndChar

StartChar: period
Encoding: 46 46 59
Width: 232
VWidth: 0
Flags: W
LayerCount: 2
Fore
SplineSet
62 47 m 0
 62 78 87 103 118 103 c 0
 149 103 174 78 174 47 c 0
 174 16 149 -9 118 -9 c 0
 87 -9 62 16 62 47 c 0
EndSplineSet
EndChar

StartChar: colon
Encoding: 58 58 60
Width: 232
VWidth: 0
Flags: W
LayerCount: 2
Fore
SplineSet
62 313 m 0
 62 344 87 369 118 369 c 0
 149 369 174 344 174 313 c 0
 174 282 149 257 118 257 c 0
 87 257 62 282 62 313 c 0
62 47 m 0
 62 78 87 103 118 103 c 0
 149 103 174 78 174 47 c 0
 174 16 149 -9 118 -9 c 0
 87 -9 62 16 62 47 c 0
EndSplineSet
EndChar

StartChar: semicolon
Encoding: 59 59 61
Width: 232
VWidth: 0
Flags: W
LayerCount: 2
Fore
SplineSet
62 313 m 0
 62 344 87 369 118 369 c 0
 149 369 174 344 174 313 c 0
 174 282 149 257 118 257 c 0
 87 257 62 282 62 313 c 0
55 47 m 0
 55 78 80 101 111 101 c 0
 142 101 184 76 184 18 c 0
 184 -76 120 -122 72 -160 c 0
 70 -161 66 -162 64 -162 c 0
 62 -162 45 -154 45 -140 c 0
 45 -138 50 -132 54 -129 c 0
 80 -112 135 -59 137 -22 c 0
 137 -15 137 -8 132 -2 c 0
 125 8 121 3 106 3 c 0
 86 3 55 11 55 47 c 0
EndSplineSet
EndChar

StartChar: comma
Encoding: 44 44 62
Width: 232
VWidth: 0
Flags: W
LayerCount: 2
Fore
SplineSet
55 47 m 0
 55 78 80 101 111 101 c 0
 142 101 184 76 184 18 c 0
 184 -76 120 -122 72 -160 c 0
 70 -161 66 -162 64 -162 c 0
 62 -162 45 -154 45 -140 c 0
 45 -138 50 -132 54 -129 c 0
 80 -112 135 -59 137 -22 c 0
 137 -15 137 -8 132 -2 c 0
 125 8 121 3 106 3 c 0
 86 3 55 11 55 47 c 0
EndSplineSet
EndChar

StartChar: hyphen
Encoding: 45 45 63
Width: 206
VWidth: 0
Flags: W
LayerCount: 2
Fore
SplineSet
42 206 m 2
 164 206 l 2
 177 206 184 202 184 189 c 2
 184 159 l 2
 184 145 181 139 167 139 c 2
 42 139 l 2
 28 139 20 141 20 155 c 2
 20 188 l 2
 20 203 27 206 42 206 c 2
EndSplineSet
EndChar

StartChar: exclam
Encoding: 33 33 64
Width: 261
VWidth: 0
Flags: W
LayerCount: 2
Fore
SplineSet
129 194 m 0
 123 296 125 399 109 493 c 0
 105 518 97 537 97 568 c 0
 97 603 117 634 152 634 c 0
 183 634 204 603 204 572 c 0
 204 542 197 518 192 495 c 0
 174 404 166 335 163 193 c 0
 163 187 156 184 148 184 c 0
 140 184 129 188 129 194 c 0
87 47 m 0
 87 78 112 103 143 103 c 0
 174 103 199 78 199 47 c 0
 199 16 174 -9 143 -9 c 0
 112 -9 87 16 87 47 c 0
EndSplineSet
EndChar

StartChar: parenleft
Encoding: 40 40 65
Width: 318
VWidth: 0
Flags: W
LayerCount: 2
Fore
SplineSet
57 228 m 0
 57 454 232 637 232 637 c 1
 247 632 249 628 258 617 c 1
 258 617 144 505 144 230 c 0
 144 -7 191 -92 244 -175 c 1
 237 -186 230 -189 217 -194 c 1
 146 -116 57 47 57 228 c 0
EndSplineSet
EndChar

StartChar: parenright
Encoding: 41 41 66
Width: 318
VWidth: 0
Flags: W
LayerCount: 2
Fore
SplineSet
258 215 m 0
 258 -11 83 -194 83 -194 c 1
 68 -189 66 -185 57 -174 c 1
 57 -174 171 -62 171 213 c 0
 171 450 124 535 71 618 c 1
 78 629 85 632 98 637 c 1
 169 559 258 396 258 215 c 0
EndSplineSet
EndChar

StartChar: question
Encoding: 63 63 67
Width: 394
VWidth: 0
Flags: W
LayerCount: 2
Fore
SplineSet
201 597 m 0
 169 597 130 588 130 552 c 0
 130 516 164 534 164 513 c 0
 164 488 120 472 93 472 c 0
 73 472 61 492 61 514 c 0
 61 578 123 629 204 629 c 0
 298 629 362 566 362 476 c 0
 362 317 172 321 172 244 c 0
 172 224 173 220 177 192 c 0
 178 184 169 179 161 179 c 0
 156 179 151 181 148 185 c 0
 136 205 132 225 132 256 c 0
 132 368 220 384 266 424 c 0
 285 441 297 467 297 508 c 0
 297 554 252 597 201 597 c 0
115 47 m 0
 115 78 140 103 171 103 c 0
 202 103 227 78 227 47 c 0
 227 16 202 -9 171 -9 c 0
 140 -9 115 16 115 47 c 0
EndSplineSet
EndChar

StartChar: quotedblright
Encoding: 8221 8221 68
Width: 444
VWidth: 0
Flags: W
LayerCount: 2
Fore
SplineSet
273 575 m 0
 273 606 298 629 329 629 c 0
 360 629 402 604 402 546 c 0
 402 452 338 406 290 368 c 0
 288 367 284 366 282 366 c 0
 280 366 263 374 263 388 c 0
 263 390 268 396 272 399 c 0
 298 416 353 469 355 506 c 0
 355 513 355 520 350 526 c 0
 343 536 339 531 324 531 c 0
 304 531 273 539 273 575 c 0
77 575 m 0
 77 606 102 629 133 629 c 0
 164 629 206 604 206 546 c 0
 206 452 142 406 94 368 c 0
 92 367 88 366 86 366 c 0
 84 366 67 374 67 388 c 0
 67 390 72 396 76 399 c 0
 102 416 157 469 159 506 c 0
 159 513 159 520 154 526 c 0
 147 536 143 531 128 531 c 0
 108 531 77 539 77 575 c 0
EndSplineSet
EndChar

StartChar: quotedblleft
Encoding: 8220 8220 69
Width: 444
VWidth: 0
Flags: W
LayerCount: 2
Fore
SplineSet
196 420 m 0
 196 389 171 366 140 366 c 0
 109 366 67 391 67 449 c 0
 67 543 131 589 179 627 c 0
 181 628 185 629 187 629 c 0
 189 629 206 621 206 607 c 0
 206 605 201 599 197 596 c 0
 171 579 116 526 114 489 c 0
 114 482 114 475 119 469 c 0
 126 459 130 464 145 464 c 0
 165 464 196 456 196 420 c 0
392 420 m 0
 392 389 367 366 336 366 c 0
 305 366 263 391 263 449 c 0
 263 543 327 589 375 627 c 0
 377 628 381 629 383 629 c 0
 385 629 402 621 402 607 c 0
 402 605 397 599 393 596 c 0
 367 579 312 526 310 489 c 0
 310 482 310 475 315 469 c 0
 322 459 326 464 341 464 c 0
 361 464 392 456 392 420 c 0
EndSplineSet
EndChar

StartChar: quoteright
Encoding: 8217 8217 70
Width: 272
VWidth: 0
Flags: W
LayerCount: 2
Fore
SplineSet
77 575 m 0
 77 606 102 629 133 629 c 0
 164 629 206 604 206 546 c 0
 206 452 142 406 94 368 c 0
 92 367 88 366 86 366 c 0
 84 366 67 374 67 388 c 0
 67 390 72 396 76 399 c 0
 102 416 157 469 159 506 c 0
 159 513 159 520 154 526 c 0
 147 536 143 531 128 531 c 0
 108 531 77 539 77 575 c 0
EndSplineSet
EndChar

StartChar: quoteleft
Encoding: 8216 8216 71
Width: 272
VWidth: 0
Flags: W
LayerCount: 2
Fore
SplineSet
196 420 m 0
 196 389 171 366 140 366 c 0
 109 366 67 391 67 449 c 0
 67 543 131 589 179 627 c 0
 181 628 185 629 187 629 c 0
 189 629 206 621 206 607 c 0
 206 605 201 599 197 596 c 0
 171 579 116 526 114 489 c 0
 114 482 114 475 119 469 c 0
 126 459 130 464 145 464 c 0
 165 464 196 456 196 420 c 0
EndSplineSet
EndChar

StartChar: endash
Encoding: 8211 8211 72
Width: 399
VWidth: 0
Flags: W
LayerCount: 2
Fore
SplineSet
42 206 m 2
 357 206 l 2
 370 206 377 202 377 189 c 2
 377 164 l 2
 377 150 374 144 360 144 c 2
 42 144 l 2
 28 144 20 146 20 160 c 2
 20 188 l 2
 20 203 27 206 42 206 c 2
EndSplineSet
EndChar

StartChar: emdash
Encoding: 8212 8212 73
Width: 669
VWidth: 0
Flags: W
LayerCount: 2
Fore
SplineSet
42 206 m 2
 627 206 l 2
 640 206 647 202 647 189 c 2
 647 164 l 2
 647 150 644 144 630 144 c 2
 42 144 l 2
 28 144 20 146 20 160 c 2
 20 188 l 2
 20 203 27 206 42 206 c 2
EndSplineSet
EndChar

StartChar: bracketleft
Encoding: 91 91 74
Width: 308
VWidth: 0
Flags: W
LayerCount: 2
Fore
SplineSet
93 627 m 0
 143 627 199 630 248 631 c 1
 251 627 253 620 253 613 c 0
 253 607 251 600 249 594 c 1
 140 593 l 1
 140 593 130 280 130 189 c 0
 130 46 129 -80 129 -123 c 0
 129 -135 131 -135 138 -135 c 2
 241 -135 l 1
 244 -142 245 -149 245 -156 c 0
 245 -162 244 -168 242 -175 c 1
 211 -175 l 2
 153 -175 106 -177 89 -177 c 0
 66 -177 57 -176 57 -159 c 2
 70 606 l 2
 70 625 75 627 93 627 c 0
EndSplineSet
EndChar

StartChar: bracketright
Encoding: 93 93 75
Width: 308
VWidth: 0
Flags: W
LayerCount: 2
Fore
SplineSet
169 -139 m 1
 172 -37 185 399 185 577 c 0
 185 589 183 589 176 589 c 2
 74 589 l 1
 71 596 70 603 70 610 c 0
 70 616 71 623 73 630 c 1
 86 630 131 629 146 629 c 0
 168 629 215 630 226 630 c 0
 238 630 253 628 253 611 c 2
 240 -152 l 2
 240 -171 235 -176 217 -176 c 0
 167 -176 108 -178 59 -179 c 1
 55 -174 54 -167 54 -159 c 0
 54 -152 55 -144 57 -139 c 1
 169 -139 l 1
EndSplineSet
EndChar

StartChar: Q_u
Encoding: 65538 -1 76
Width: 1182
VWidth: 0
Flags: W
LayerCount: 2
Fore
SplineSet
591 296 m 0
 591 468 469 582 364 582 c 0
 226 582 141 433 141 305 c 0
 141 136 248 24 365 24 c 0
 534 24 591 175 591 296 c 0
263 -7 m 0
 138 36 36 136 36 294 c 0
 36 476 176 628 360 628 c 0
 553 628 691 479 691 312 c 0
 691 163 601 32 471 -2 c 0
 449 -8 438 -13 438 -17 c 0
 438 -22 479 -69 492 -84 c 0
 520 -116 656 -232 878 -232 c 0
 1021 -232 1070 -205 1102 -187 c 1
 1110 -195 1117 -204 1117 -219 c 1
 1090 -252 936 -285 844 -285 c 0
 656 -285 440 -224 345 -52 c 0
 335 -33 331 -22 327 -21 c 0
 316 -18 290 -16 263 -7 c 0
730 349 m 1
 766 356 844 370 844 370 c 1
 856 359 l 1
 856 359 850 307 849 282 c 0
 848 240 847 158 847 151 c 0
 847 84 868 51 918 51 c 0
 962 51 1014 89 1014 89 c 1
 1015 155 1018 224 1018 290 c 0
 1018 317 998 318 971 328 c 1
 971 352 l 1
 1007 357 1083 370 1083 370 c 1
 1095 359 l 1
 1095 359 1090 280 1090 271 c 0
 1088 237 1087 213 1087 189 c 2
 1087 65 l 2
 1087 48 1096 51 1102 53 c 2
 1151 67 l 1
 1158 61 l 1
 1158 30 l 1
 1116 19 1070 5 1030 -11 c 1
 1017 0 l 1
 1017 57 l 1
 1017 57 948 -9 876 -9 c 0
 816 -9 770 40 770 102 c 0
 770 174 776 270 776 283 c 0
 776 313 753 317 730 324 c 1
 730 349 l 1
EndSplineSet
EndChar

StartChar: c_t
Encoding: 65539 -1 77
Width: 594
VWidth: 0
Flags: W
LayerCount: 2
Fore
SplineSet
332 341 m 1
 344 346 354 352 362 360 c 0
 373 371 391 417 391 439 c 0
 391 482 364 519 312 519 c 0
 261 519 218 477 218 442 c 0
 218 424 220 412 227 398 c 0
 236 381 247 378 267 372 c 0
 287 366 308 358 308 335 c 0
 308 326 284 294 266 294 c 0
 238 294 222 325 193 325 c 0
 130 325 103 258 103 200 c 0
 103 78 176 40 216 40 c 0
 268 40 316 77 316 77 c 1
 328 52 l 1
 328 52 273 -11 194 -11 c 0
 80 -11 26 71 26 164 c 0
 26 271 104 354 203 375 c 1
 186 396 174 418 174 449 c 0
 174 514 237 567 319 567 c 0
 386 567 447 534 447 448 c 0
 447 420 445 388 445 361 c 1
 567 368 l 1
 567 368 569 361 569 342 c 2
 569 337 l 2
 569 323 566 312 566 312 c 1
 441 314 l 1
 441 314 437 188 437 144 c 0
 437 95 443 47 492 47 c 0
 528 47 563 76 563 76 c 1
 572 44 l 1
 543 20 500 -12 463 -12 c 0
 392 -12 362 44 362 106 c 0
 362 124 370 308 370 308 c 1
 337 308 l 1
 332 316 332 322 332 331 c 2
 332 341 l 1
EndSplineSet
EndChar

StartChar: ampersand
Encoding: 38 38 78
Width: 654
VWidth: 0
Flags: W
LayerCount: 2
Fore
SplineSet
499 -10 m 0
 402 -10 361 103 361 103 c 1
 361 103 290 -12 202 -12 c 0
 112 -12 36 58 36 150 c 0
 36 280 147 319 147 319 c 1
 147 319 114 355 114 391 c 0
 114 458 173 545 244 545 c 0
 304 545 350 500 350 442 c 0
 350 398 293 338 293 338 c 1
 343 310 370 256 393 200 c 1
 394 201 505 376 505 393 c 0
 505 412 481 425 481 447 c 0
 481 459 483 463 498 463 c 0
 538 462 582 460 617 459 c 0
 624 459 628 454 628 441 c 0
 628 431 623 421 612 414 c 0
 586 396 557 370 543 352 c 0
 479 270 410 161 410 161 c 1
 410 161 458 71 523 71 c 0
 558 71 581 90 598 113 c 0
 604 121 608 130 618 130 c 0
 625 130 630 124 630 100 c 0
 630 68 592 -10 499 -10 c 0
174 296 m 0
 173 296 97 249 97 171 c 0
 97 137 120 109 148 91 c 0
 165 80 189 76 216 76 c 0
 294 76 344 134 344 134 c 1
 334 155 298 238 275 260 c 0
 254 280 214 274 174 296 c 0
248 351 m 0
 274 351 282 392 282 416 c 0
 282 454 257 484 217 484 c 0
 194 484 164 458 164 427 c 0
 164 406 181 379 197 365 c 0
 210 354 233 351 248 351 c 0
EndSplineSet
EndChar

StartChar: dollar
Encoding: 36 36 79
Width: 430
VWidth: 0
Flags: W
LayerCount: 2
Fore
SplineSet
304 534 m 0
 285 521 278 519 250 515 c 0
 195 508 144 501 144 436 c 0
 144 392 186 360 238 338 c 1
 251 375 288 470 308 529 c 0
 312 538 310 538 304 534 c 0
251 254 m 1
 171 31 l 1
 178 29 186 28 194 28 c 0
 207 28 221 30 231 33 c 0
 277 46 315 88 315 145 c 0
 315 177 310 221 251 254 c 1
89 191 m 0
 107 191 122 181 122 163 c 0
 122 140 94 128 94 101 c 0
 94 62 117 46 134 42 c 1
 217 271 l 1
 154 304 79 334 79 426 c 0
 79 505 142 552 207 552 c 0
 223 552 241 550 253 550 c 0
 309 550 329 594 345 636 c 0
 349 646 353 658 358 672 c 1
 360 673 364 674 367 674 c 0
 381 674 400 666 400 658 c 1
 338 512 309 413 276 322 c 1
 320 296 384 246 384 178 c 0
 384 64 282 -6 204 -6 c 0
 187 -6 171 -6 159 -4 c 1
 128 -84 116 -134 94 -194 c 1
 91 -194 88 -195 85 -195 c 0
 68 -195 54 -188 48 -174 c 1
 81 -101 121 7 121 7 c 17
 43 45 31 96 31 135 c 0
 31 169 43 186 77 190 c 0
 81 191 85 191 89 191 c 0
EndSplineSet
EndChar

StartChar: one
Encoding: 49 49 80
Width: 294
VWidth: 0
Flags: W
LayerCount: 2
Fore
SplineSet
152 3 m 0
 118 3 88 -2 39 -5 c 1
 36 0 34 7 34 13 c 0
 34 19 36 24 38 30 c 1
 87 35 l 2
 102 37 105 52 106 67 c 0
 107 84 107 109 109 184 c 2
 113 302 l 2
 113 313 108 320 80 320 c 2
 47 320 l 1
 43 325 42 330 42 338 c 0
 42 344 44 352 46 357 c 1
 76 355 100 354 123 354 c 0
 171 354 207 357 247 360 c 1
 250 353 251 346 251 339 c 0
 251 332 250 326 246 322 c 1
 205 323 l 2
 191 323 183 312 183 308 c 0
 182 288 176 147 176 82 c 0
 176 57 177 38 198 38 c 2
 253 37 l 1
 258 31 260 26 260 20 c 0
 260 14 258 8 255 1 c 1
 235 1 l 2
 198 1 178 3 152 3 c 0
EndSplineSet
EndChar

StartChar: two
Encoding: 50 50 81
Width: 390
VWidth: -2
Flags: W
LayerCount: 2
Fore
SplineSet
336 294 m 0
 336 206 262 161 178 94 c 0
 156 76 138 64 138 64 c 1
 138 64 183 62 232 62 c 0
 257 62 282 62 304 64 c 0
 313 65 318 67 324 69 c 0
 330 71 350 79 355 79 c 0
 363 79 365 74 365 68 c 0
 365 65 365 62 364 60 c 0
 360 41 355 26 349 7 c 0
 346 -1 333 -2 321 -2 c 0
 231 -2 192 1 96 1 c 0
 77 1 72 -4 51 -4 c 0
 35 -4 28 8 28 22 c 0
 28 33 35 37 44 44 c 0
 128 104 254 176 254 278 c 0
 254 310 217 335 187 335 c 0
 108 335 61 279 42 279 c 0
 33 279 27 290 27 298 c 0
 27 308 50 324 73 338 c 0
 109 359 151 382 209 382 c 0
 276 382 336 356 336 294 c 0
EndSplineSet
EndChar

StartChar: three
Encoding: 51 51 82
Width: 370
VWidth: 5
Flags: W
LayerCount: 2
Fore
SplineSet
54 339 m 0
 106 370 153 379 197 379 c 0
 254 379 307 341 307 281 c 0
 307 206 223 157 181 128 c 0
 171 121 172 118 184 120 c 0
 194 121 204 121 213 121 c 0
 284 121 332 77 332 17 c 0
 332 -19 321 -49 305 -75 c 0
 240 -177 109 -202 32 -202 c 0
 23 -202 18 -196 18 -178 c 0
 18 -172 23 -165 28 -164 c 0
 47 -162 67 -159 86 -156 c 0
 165 -142 250 -91 250 -11 c 0
 250 31 219 83 143 83 c 0
 117 83 109 73 100 73 c 0
 91 73 78 85 78 94 c 0
 78 97 80 100 83 102 c 0
 131 134 233 195 233 256 c 0
 233 308 192 331 158 331 c 0
 129 331 111 324 78 310 c 0
 75 309 70 307 67 307 c 0
 57 307 49 319 49 329 c 0
 49 333 50 337 54 339 c 0
EndSplineSet
EndChar

StartChar: four
Encoding: 52 52 83
Width: 442
VWidth: 0
Flags: W
LayerCount: 2
Fore
SplineSet
86 54 m 25
 262 54 l 25
 262 278 l 25
 86 54 l 25
43 68 m 2
 279 367 l 2
 288 379 297 388 314 388 c 0
 331 388 333 373 333 366 c 0
 333 312 327 317 327 78 c 2
 327 54 l 9
 421 54 l 17
 423 45 424 37 424 28 c 0
 424 17 423 7 421 0 c 9
 327 0 l 17
 327 -87 l 2
 327 -138 327 -195 329 -208 c 0
 330 -219 319 -220 309 -220 c 2
 272 -220 l 2
 258 -220 254 -217 254 -208 c 0
 254 -201 254 -198 255 -190 c 0
 258 -157 262 -75 262 -5 c 2
 262 0 l 1
 52 0 l 2
 33 0 32 6 32 18 c 2
 32 33 l 2
 32 50 35 58 43 68 c 2
EndSplineSet
EndChar

StartChar: five
Encoding: 53 53 84
Width: 390
VWidth: 0
Flags: W
LayerCount: 2
Fore
SplineSet
96 354 m 0
 150 356 173 357 267 360 c 0
 284 361 292 381 306 381 c 0
 321 381 326 369 326 356 c 0
 326 332 317 312 294 306 c 0
 255 295 202 292 163 292 c 2
 133 292 l 2
 119 292 110 290 107 269 c 0
 106 261 104 246 104 244 c 0
 104 227 113 225 146 223 c 0
 215 219 352 198 352 61 c 0
 352 -98 146 -214 84 -214 c 0
 76 -214 68 -208 68 -195 c 0
 68 -184 85 -178 96 -172 c 0
 167 -137 273 -65 273 40 c 0
 273 134 194 175 77 176 c 0
 62 176 48 187 48 202 c 0
 48 204 48 207 49 210 c 0
 66 268 68 286 77 343 c 0
 78 351 88 354 96 354 c 0
EndSplineSet
EndChar

StartChar: six
Encoding: 54 54 85
Width: 470
VWidth: 0
Flags: W
LayerCount: 2
Fore
SplineSet
250 25 m 0
 308 25 346 92 346 154 c 0
 346 229 297 331 224 331 c 0
 145 331 132 269 132 209 c 0
 132 124 172 25 250 25 c 0
156 345 m 1
 187 359 223 364 245 364 c 0
 353 364 422 283 422 180 c 0
 422 78 355 -12 234 -12 c 0
 123 -12 51 90 51 202 c 0
 51 393 185 599 401 599 c 1
 409 595 409 576 404 571 c 1
 220 554 165 386 156 345 c 1
EndSplineSet
EndChar

StartChar: f_f
Encoding: 65540 -1 86
Width: 522
VWidth: 0
Flags: W
LayerCount: 2
Fore
SplineSet
145 321 m 1
 147 99 l 2
 147 65 148 42 160 40 c 2
 199 35 l 1
 200 30 201 21 201 15 c 0
 201 10 200 5 198 0 c 1
 164 0 39 -5 26 -6 c 1
 21 -2 19 6 19 14 c 0
 19 20 20 27 22 32 c 1
 33 34 45 35 58 38 c 0
 68 41 74 53 74 71 c 2
 76 321 l 1
 22 321 l 1
 22 321 18 329 18 341 c 2
 18 346 l 2
 18 356 21 364 21 364 c 1
 76 364 l 1
 76 486 97 546 169 605 c 0
 194 626 235 647 294 647 c 0
 327 647 364 638 381 607 c 1
 385 611 389 615 393 618 c 0
 420 640 456 668 517 668 c 0
 547 668 581 662 581 636 c 0
 581 612 571 582 552 582 c 0
 529 582 497 610 468 610 c 0
 447 610 430 606 418 595 c 0
 376 559 370 454 370 401 c 2
 370 364 l 1
 492 366 l 1
 492 366 494 361 494 342 c 2
 494 337 l 2
 494 323 491 313 491 313 c 1
 370 318 l 1
 372 99 l 2
 372 65 373 42 385 42 c 2
 442 40 l 1
 445 35 447 28 447 20 c 0
 447 13 446 6 441 0 c 1
 434 0 363 2 347 2 c 0
 299 2 251 -3 251 -3 c 1
 246 1 244 9 244 17 c 0
 244 23 245 27 247 32 c 1
 258 34 270 36 283 39 c 0
 293 42 299 53 299 71 c 2
 301 321 l 1
 145 321 l 1
340 560 m 1
 308 560 287 607 248 607 c 0
 170.610964742 607 145 515.425613998 145 364 c 1
 301 364 l 1
 301 408 303 452 313 499 c 0
 318 521 327 541 340 560 c 1
EndSplineSet
EndChar

StartChar: f_i
Encoding: 65541 -1 87
Width: 449
VWidth: 0
Flags: W
LayerCount: 2
Fore
SplineSet
250 -2 m 1
 248 4 246 12 246 19 c 0
 246 24 246 28 248 32 c 1
 278 36 l 2
 296 39 298 54 298 67 c 2
 298 269 l 2
 298 299 282 318 268 318 c 2
 145 318 l 1
 147 99 l 1
 147 69 l 2
 147 51 148 40 156 39 c 2
 196 36 l 1
 199 33 200 28 200 22 c 0
 200 13 198 4 197 -1 c 1
 162 0 123 3 107 3 c 0
 59 3 23 -2 23 -2 c 1
 19 1 17 8 17 15 c 0
 17 22 19 29 21 35 c 1
 32 37 45 37 58 40 c 0
 68 43 74 53 74 71 c 2
 76 321 l 1
 22 321 l 1
 22 321 18 329 18 341 c 2
 18 346 l 2
 18 356 21 364 21 364 c 1
 76 364 l 1
 76 408 78 452 88 499 c 0
 98 546 130 587 168 618 c 0
 195 640 231 668 292 668 c 0
 330 668 361 660 361 636 c 0
 361 612 351 582 332 582 c 0
 309 582 272 610 243 610 c 0
 222 610 205 606 193 595 c 0
 151 559 145 454 145 401 c 2
 145 364 l 1
 267 364 l 2
 304 364 337 366 366 383 c 1
 381 373 l 1
 381 373 371 263 371 224 c 2
 369 67 l 2
 369 52 369 38 379 38 c 2
 427 39 l 1
 429 33 431 29 431 23 c 0
 431 17 429 9 427 1 c 1
 414 1 415 2 395 2 c 2
 346 2 l 2
 311 2 293 0 250 -2 c 1
EndSplineSet
EndChar

StartChar: f_l
Encoding: 65542 -1 88
Width: 456
VWidth: 0
Flags: W
LayerCount: 2
Fore
SplineSet
421 35 m 1
 425 29 427 23 427 16 c 0
 427 10 426 4 424 -1 c 1
 391 1 360 2 336 2 c 0
 305 2 278 0 246 -4 c 1
 245 0 244 5 244 10 c 0
 244 17 245 24 246 29 c 1
 264 32 288 33 290 47 c 0
 294 68 295 86 296 184 c 0
 297 233 298 276 299 318 c 1
 140 318 l 1
 142 99 l 2
 142 65 144 35 156 35 c 2
 192 34 l 1
 194 31 196 25 196 17 c 0
 196 11 195 4 190 -2 c 1
 183 -2 116 3 73 3 c 0
 56 3 21 -1 21 -1 c 1
 16 3 14 9 14 17 c 0
 14 23 16 29 18 34 c 1
 18 34 22 34 53 35 c 0
 62 35 69 53 69 71 c 2
 71 321 l 1
 17 321 l 1
 17 321 13 329 13 341 c 2
 13 346 l 2
 13 356 16 364 16 364 c 1
 71 364 l 1
 71 408 73 452 83 499 c 0
 93 546 123 580 161 611 c 0
 188 633 231 668 292 668 c 0
 309 668 327 666 340 659 c 1
 349 662 359 667 367 667 c 0
 376 667 385 661 385 651 c 0
 385 645 381 622 379 612 c 0
 376 592 373 577 372 532 c 0
 371 457 367 338 367 302 c 2
 367 63 l 2
 367 46 371 36 376 36 c 0
 386 36 409 35 421 35 c 1
194 593 m 0
 142 556 140 472 140 417 c 2
 140 364 l 1
 300 364 l 1
 302 421 303 477 303 542 c 0
 303 581 274 605 237 605 c 0
 224 605 206 601 194 593 c 0
EndSplineSet
EndChar

StartChar: f_f_i
Encoding: 65543 -1 89
Width: 680
VWidth: 0
Flags: W
LayerCount: 2
Fore
SplineSet
145 364 m 1
 303 364 l 1
 303 408 305 452 315 499 c 0
 319 517 335 552 342 560 c 1
 310 560 287 607 248 607 c 0
 171 607 145 515 145 364 c 1
303 321 m 1
 145 321 l 1
 147 99 l 2
 147 65 148 44 160 43 c 2
 199 40 l 1
 200 35 201 24 201 18 c 0
 201 13 200 8 198 3 c 1
 178 4 159 5 140 5 c 0
 83 5 24 0 24 0 c 1
 19 4 17 12 17 20 c 0
 17 26 18 33 20 38 c 1
 31 40 45 38 58 41 c 0
 68 44 74 53 74 71 c 2
 76 321 l 1
 22 321 l 1
 22 321 18 329 18 341 c 2
 18 346 l 2
 18 356 21 364 21 364 c 1
 76 364 l 1
 76 486 97 546 169 605 c 0
 194 626 235 647 294 647 c 0
 327 647 365 638 382 607 c 1
 395 618 l 2
 422 640 458 668 519 668 c 0
 557 668 588 660 588 636 c 0
 588 612 578 582 559 582 c 0
 536 582 499 610 470 610 c 0
 449 610 432 606 420 595 c 0
 378 559 372 454 372 401 c 2
 372 364 l 1
 494 364 l 2
 531 364 564 366 593 383 c 1
 608 373 l 1
 608 373 598 263 598 224 c 2
 596 67 l 2
 596 52 596 38 606 38 c 2
 654 39 l 1
 656 33 658 29 658 23 c 0
 658 17 656 9 654 1 c 1
 641 1 642 2 622 2 c 2
 573 2 l 2
 538 2 520 0 477 -2 c 1
 475 4 473 12 473 19 c 0
 473 24 473 28 475 32 c 1
 505 36 l 2
 523 39 525 54 525 67 c 2
 525 269 l 2
 525 299 509 318 495 318 c 2
 372 318 l 1
 374 71 l 2
 374 53 375 42 383 41 c 2
 423 38 l 1
 426 35 427 28 427 22 c 0
 427 13 425 4 424 -1 c 1
 389 0 350 3 334 3 c 0
 286 3 250 -2 250 -2 c 1
 246 1 244 8 244 15 c 0
 244 22 246 31 248 37 c 1
 259 39 272 39 285 42 c 0
 295 45 301 55 301 73 c 2
 303 321 l 1
EndSplineSet
EndChar

StartChar: f_f_l
Encoding: 65544 -1 90
Width: 680
VWidth: 0
Flags: W
LayerCount: 2
Fore
SplineSet
426 593 m 0
 374 556 372 472 372 417 c 2
 372 364 l 1
 532 364 l 1
 534 421 535 477 535 542 c 0
 535 581 506 605 469 605 c 0
 456 605 438 601 426 593 c 0
653 33 m 1
 657 27 659 21 659 14 c 0
 659 8 658 2 656 -3 c 1
 623 -1 592 0 568 0 c 0
 537 0 510 -2 478 -6 c 1
 477 -2 476 3 476 8 c 0
 476 15 477 22 478 27 c 1
 496 30 520 33 522 47 c 0
 526 68 527 86 528 184 c 0
 529 233 530 276 531 318 c 1
 372 318 l 1
 373 241 374 165 374 88 c 0
 374 58 375 32 390 32 c 2
 424 32 l 1
 426 29 428 23 428 15 c 0
 428 9 427 2 422 -4 c 1
 415 -4 348 0 305 0 c 0
 288 0 252 -3 252 -3 c 1
 248 2 246 7 246 13 c 0
 246 18 248 23 250 29 c 1
 250 29 254 31 285 32 c 0
 294 32 301 53 301 71 c 2
 303 321 l 1
 145 321 l 1
 147 99 l 2
 147 65 148 36 160 35 c 2
 199 33 l 1
 200 28 201 19 201 13 c 0
 201 8 200 3 198 -2 c 1
 164 -2 79 -2 26 -8 c 1
 21 -4 19 4 19 12 c 0
 19 18 20 22 22 27 c 1
 58 30 74 26 74 69 c 2
 76 321 l 1
 22 321 l 1
 22 321 18 329 18 341 c 2
 18 346 l 2
 18 356 21 364 21 364 c 1
 76 364 l 1
 76 486 97 546 169 605 c 0
 194 626 235 647 294 647 c 0
 327 647 364 638 381 607 c 0
 382 606 382 604 383 603 c 1
 393 611 l 2
 420 633 463 668 524 668 c 0
 541 668 559 666 572 659 c 1
 581 662 591 667 599 667 c 0
 608 667 617 661 617 651 c 0
 617 645 613 622 611 612 c 0
 608 592 605 577 604 532 c 0
 603 457 599 338 599 302 c 2
 599 63 l 2
 599 46 603 34 608 34 c 0
 618 34 641 33 653 33 c 1
340 560 m 2
 308 560 287 607 248 607 c 0
 171 607 145 515 145 364 c 1
 303 364 l 1
 303 408 305 452 315 499 c 0
 320 522 330 542 343 560 c 1
 340 560 l 2
EndSplineSet
EndChar

